<?xml version="1.0" encoding="utf-8"?>
<!-- Generator: Adobe Illustrator 26.2.1, SVG Export Plug-In . SVG Version: 6.00 Build 0)  -->
<svg version="1.1" id="Capa_1" xmlns="http://www.w3.org/2000/svg" xmlns:xlink="http://www.w3.org/1999/xlink" x="0px" y="0px"
	 viewBox="0 0 500 500" style="enable-background:new 0 0 500 500;" xml:space="preserve">
<style type="text/css">
	.st0{fill:none;}
	.st1{fill:#005F5A;}
	.st2{fill:#005F5A;stroke:#20736F;stroke-width:0.75;stroke-miterlimit:10;}
	.st3{fill:none;stroke:#20736F;stroke-width:0;stroke-miterlimit:10;}
	.st4{fill:#005F5A;stroke:#20736F;stroke-miterlimit:10;}
	.st5{fill:url(#SVGID_00000130604650421959949270000010740219666619447738_);}
</style>
<pattern  width="283.5" height="283.5" patternUnits="userSpaceOnUse" id="Nueva_muestra_de_motivo_12" viewBox="53 -349 283.5 283.5" style="overflow:visible;">
	<g>
		<rect x="53" y="-349" class="st0" width="283.5" height="283.5"/>
		<rect x="53" y="-349" class="st0" width="283.5" height="283.5"/>
		<rect x="53" y="-349" class="st1" width="283.5" height="283.5"/>
		<path class="st2" d="M187.1-151.2c-3,18-5.1,36.1-7.2,54.2c-1.1,9.3-2.2,18.7-3.3,28l75-56.4C230-134,208.6-142.6,187.1-151.2z"/>
		<g>
			<path class="st2" d="M186.4-164.7c0.4-2,0.3-4.1-0.4-6.2c-2.3-6.6-9.8-9.3-17.7-6.5l-15.9,5.6l17,47.8l20.9-7.4l2-0.7
				c8.7-3.1,13.3-12.8,10.2-21.5C200-160.4,193.4-164.7,186.4-164.7z"/>
		</g>
		<polygon class="st2" points="257,-180.5 262.2,-168.9 208.1,-148.8 203.4,-160.5 		"/>
		<path class="st2" d="M245.9-205.3c-2.4-4.1-7.8-7.3-13.1-7c-4.2,0.2-7.6,2.4-10.3,4.7c-3.4,2.9-6.3,6.3-8.5,10
			c-2.2,3.7-3.7,7.6-6,11.3s-5.4,7.1-10,8.8c-2.4,0.9-5.2,1.3-8,1.2c3.3,1.8,6.9,3.3,10.7,4.3c8.2,2.1,17.1,1.9,24.2-1.3
			c1.4-0.6,2.8-1.4,3.5-2.6c0.3-0.4,0.4-0.9,0.4-1.4c0-0.8-0.3-1.7-1-2.3c1-0.4,2-0.8,3-1.3c1.8-0.8,3.5-1.7,5.1-2.6
			c4.1-2.4,7.9-5.4,10.1-9.3C247.9-196.5,248.3-201.2,245.9-205.3z"/>
		<polygon class="st2" points="278.6,-299.4 248.8,-195.4 274.7,-189.7 301.5,-294.6 		"/>
		<g>
			<path class="st3" d="M275.9-264.5c-1.5-0.7-2.6-2.4-2.9-4.5c-0.5-3.4,1.8-7.7,4.4-7.9"/>
			<g>
				<path class="st2" d="M235.2-291.5c4.8-1.9,10.1-2.1,15.1-3.3c4.9-1.4,7.9-4.3,9.7-7.1c0.2-0.3,0.3-0.5,0.5-0.8
					c0.4-0.8,0.8-1.5,1.1-2.3c0.2-0.6,0.4-1.1,0.6-1.6c0.2-0.7,0.4-1.4,0.5-1.9c0-0.2,0-0.4,0.1-0.5c0,0,0,0,0,0
					c1.5-5.2,4.4-1.1,4.4-1c4.2,7.6,10.5,14,10.5,14l0,0.1c1.5,1.7,2.9,3.7,4.2,5.7c1.6,2.6,3,5.4,3.7,8.7c0.7,3.3,0.7,7.1-0.4,10.5
					c0,0.1-0.1,0.2-0.1,0.3c-1.2,3.3-3.5,6-6.1,6.6c-1.3,0.3-2.7-0.1-3.8-0.9c-0.3,1.3-0.7,2.6-1.2,3.9c-1.3,3.3-3.2,6.3-5.5,8.8
					c-6.7,7.2-16.5,9.9-25.4,9.3c-8.1-0.5-16.1-3.8-20.6-10.5c-4-5.9-4.9-14.2-2.4-21.6C222.4-282.6,228.3-288.9,235.2-291.5z"/>
				<g>
					<defs>
						<path id="SVGID_1_" d="M235.2-291.5c4.8-1.9,10.1-2.1,15.1-3.3c4.9-1.4,7.9-4.3,9.7-7.1c0.2-0.3,0.3-0.5,0.5-0.8
							c0.4-0.8,0.8-1.5,1.1-2.3c0.2-0.6,0.4-1.1,0.6-1.6c0.2-0.7,0.4-1.4,0.5-1.9c0-0.2,0-0.4,0.1-0.5c0,0,0,0,0,0
							c1.5-5.2,4.4-1.1,4.4-1c4.2,7.6,10.5,14,10.5,14l0,0.1c1.5,1.7,2.9,3.7,4.2,5.7c1.6,2.6,3,5.4,3.7,8.7
							c0.7,3.3,0.7,7.1-0.4,10.5c0,0.1-0.1,0.2-0.1,0.3c-1.2,3.3-3.5,6-6.1,6.6c-1.3,0.3-2.7-0.1-3.8-0.9c-0.3,1.3-0.7,2.6-1.2,3.9
							c-1.3,3.3-3.2,6.3-5.5,8.8c-6.7,7.2-16.5,9.9-25.4,9.3c-8.1-0.5-16.1-3.8-20.6-10.5c-4-5.9-4.9-14.2-2.4-21.6
							C222.4-282.6,228.3-288.9,235.2-291.5z"/>
					</defs>
					<clipPath id="SVGID_00000074412004082633387030000011946081177575637682_">
						<use xlink:href="#SVGID_1_"  style="overflow:visible;"/>
					</clipPath>
					<use xlink:href="#SVGID_1_"  style="overflow:visible;fill:none;stroke:#20736F;stroke-width:0;stroke-miterlimit:10;"/>
				</g>
				<g>
					<defs>
						<path id="SVGID_00000178884376319927166870000009830256724267093431_" d="M235.2-291.5c4.8-1.9,10.1-2.1,15.1-3.3
							c4.9-1.4,7.9-4.3,9.7-7.1c0.2-0.3,0.3-0.5,0.5-0.8c0.4-0.8,0.8-1.5,1.1-2.3c0.2-0.6,0.4-1.1,0.6-1.6c0.2-0.7,0.4-1.4,0.5-1.9
							c0-0.2,0-0.4,0.1-0.5c0,0,0,0,0,0c1.5-5.2,4.4-1.1,4.4-1c4.2,7.6,10.5,14,10.5,14l0,0.1c1.5,1.7,2.9,3.7,4.2,5.7
							c1.6,2.6,3,5.4,3.7,8.7c0.7,3.3,0.7,7.1-0.4,10.5c0,0.1-0.1,0.2-0.1,0.3c-1.2,3.3-3.5,6-6.1,6.6c-1.3,0.3-2.7-0.1-3.8-0.9
							c-0.3,1.3-0.7,2.6-1.2,3.9c-1.3,3.3-3.2,6.3-5.5,8.8c-6.7,7.2-16.5,9.9-25.4,9.3c-8.1-0.5-16.1-3.8-20.6-10.5
							c-4-5.9-4.9-14.2-2.4-21.6C222.4-282.6,228.3-288.9,235.2-291.5z"/>
					</defs>
					<clipPath id="SVGID_00000068657107109566060790000001249818641253715355_">
						<use xlink:href="#SVGID_00000178884376319927166870000009830256724267093431_"  style="overflow:visible;"/>
					</clipPath>
					
						<use xlink:href="#SVGID_00000178884376319927166870000009830256724267093431_"  style="overflow:visible;fill:none;stroke:#20736F;stroke-width:0;stroke-miterlimit:10;"/>
				</g>
			</g>
		</g>
		<path class="st2" d="M204.4-251.3c7.1,12.1,14.8,23.8,22.4,35.5c4,6,7.9,12.1,11.9,18.1l16.4-70.2
			C238.2-262.3,221.3-256.8,204.4-251.3z"/>
		<polygon class="st2" points="203.9,-257.8 230.8,-237.7 189.9,-198.3 		"/>
		<path class="st2" d="M203.5-285.3c-2.8,4.1-7.1,7.3-11.7,9.1c2.3,1.4,5,2.3,7.9,2.7c3.7,0.5,7.8,0.1,11.7-1.5
			c3.8-1.7,7.4-4.8,9-8.5c1.9-4.2,1.1-9-2.1-11.4c-2.8-2.2-7.2-2.5-11.1-0.8C207-292.2,205.8-288.5,203.5-285.3z"/>
		<path class="st2" d="M157.2-107.5c-3.2,4.6-8,8.2-13.2,10.2c2.6,1.5,5.6,2.6,8.8,3c4.2,0.6,8.8,0.2,13.1-1.7
			c4.3-1.9,8.3-5.4,10.1-9.5c2.2-4.8,1.2-10.1-2.3-12.8c-3.1-2.5-8.1-2.7-12.5-0.9C161.2-115.3,159.8-111.2,157.2-107.5z"/>
		<polygon class="st2" points="232.8,-151.2 242.5,-142 209.6,-113.3 200.2,-122.7 		"/>
		<g>
			<path class="st2" d="M198.4-208.3c1.2-1.4,2-3.1,2.2-5c0.9-6.2-3.9-11.5-11.3-12.5l-14.9-2.1l-6.3,44.9l19.6,2.8l1.9,0.3
				c8.2,1.2,15.8-4.6,17-12.8C207.3-199.4,203.9-205.5,198.4-208.3z"/>
		</g>
		<polygon class="st2" points="141.3,-205.3 187.7,-189.7 161.1,-228.1 		"/>
		<g>
			<g>
				<path class="st2" d="M180.8-270c1.2-2.2,1.7-4.6,1.6-7.1c-0.4-8.2-8-13.9-17.9-13.4l-19.9,1.1l3.2,59.9l26.1-1.4l2.5-0.1
					c10.9-0.6,19.4-10,18.8-20.9C194.8-260.6,188.8-267.7,180.8-270z"/>
			</g>
		</g>
		<g>
			<g>
				<path class="st4" d="M271.8-139.9l0.2,0.2C272.4-140,272.2-140,271.8-139.9z"/>
			</g>
			<g>
				<defs>
					<path id="SVGID_00000127004860795401491190000011100631923579365038_" d="M298.7-145.6l0.2,0.2
						C299.3-145.6,299.1-145.7,298.7-145.6z"/>
				</defs>
				<clipPath id="SVGID_00000042696397843861239410000011820316491019500729_">
					<use xlink:href="#SVGID_00000127004860795401491190000011100631923579365038_"  style="overflow:visible;"/>
				</clipPath>
				
					<use xlink:href="#SVGID_00000127004860795401491190000011100631923579365038_"  style="overflow:visible;fill:none;stroke:#20736F;stroke-miterlimit:10;"/>
			</g>
		</g>
		<polygon class="st2" points="306.5,-119.9 332.9,-99.1 291,-60.9 		"/>
		<polygon class="st2" points="239.5,-154.6 317.6,-173.1 320.8,-118.1 		"/>
		<g>
			<path class="st2" d="M269.1-189.5c-0.1,1.8,0.3,3.9,1,5.9c-3.6,3.3-6,8.7-5.2,12.8c0.5,2.9,2.3,5.4,4.5,7.2
				c2.2,1.9,4.9,3.1,7.6,4c4.1,1.4,9.1,2.1,12.3-0.8c1-0.9,1.7-2,2.1-3.2c0.3,0.1,0.6,0.1,0.9,0.2c3.3,0.5,6.9-0.2,9.1-2.8
				c1.6-1.9,2.2-4.6,1.8-7.1c-0.4-2.5-1.5-4.8-3-6.8c-1.1-1.5-2.5-2.9-3.9-4.1c-0.1-1.9-0.7-3.8-1.6-5.6c-1.7-3.5-4.5-6.6-7.8-8.4
				c-3.3-1.9-7.1-2.5-10.4-1.4C272.3-198.1,269.4-194.1,269.1-189.5z"/>
		</g>
		<g>
			<g>
				<g>
					<g>
						<g>
							<g>
								<g>
									<g>
										<defs>
											<path id="SVGID_00000161633204782948345140000007582421737415756438_" d="M360.9-304.9c-3.4-4.6-8.6-8.1-12.6-12.1
												c-3.9-4.2-4.8-8.4-4.5-11.9c0-0.3,0.1-0.6,0.1-0.9c0.1-0.9,0.3-1.8,0.6-2.6c0.2-0.6,0.4-1.2,0.6-1.7
												c0.3-0.7,0.7-1.4,1-1.9c0.1-0.2,0.2-0.3,0.3-0.5c0,0,0,0,0,0c2.3-5.2-3.6-3.6-3.6-3.6c-9.8,3.8-20.7,5.2-20.7,5.2
												l-0.1,0.1c-2.8,0.5-5.6,1.2-8.4,2.2c-3.5,1.2-7,2.7-10.1,5s-5.9,5.5-7.3,9c0,0.1-0.1,0.2-0.1,0.4
												c-1.2,3.5-0.9,7.2,1.2,9.3c1.1,1.1,2.7,1.6,4.5,1.6c-0.7,1.3-1.2,2.6-1.6,4c-1.1,3.5-1.5,7.2-1,10.8
												c1.4,10.1,9.2,18.5,18.5,23.5c8.5,4.6,18.8,6.8,28.3,4c8.3-2.5,15.3-8.8,18.2-16.5C367.1-289.5,365.8-298.4,360.9-304.9z
												"/>
										</defs>
										<use xlink:href="#SVGID_00000161633204782948345140000007582421737415756438_"  style="overflow:visible;fill:#005F5A;"/>
										<clipPath id="SVGID_00000109010564452764805100000011082010837246088335_">
											<use xlink:href="#SVGID_00000161633204782948345140000007582421737415756438_"  style="overflow:visible;"/>
										</clipPath>
										
											<use xlink:href="#SVGID_00000161633204782948345140000007582421737415756438_"  style="overflow:visible;fill:none;stroke:#20736F;stroke-width:0.75;stroke-miterlimit:10;"/>
									</g>
								</g>
							</g>
						</g>
					</g>
					<g>
						<g>
							<g>
								<g>
									<defs>
										<path id="SVGID_00000129177937466544149450000015539432228252140712_" d="M377.8-176.5l-0.1,0.3
											C378.1-175.8,378-176,377.8-176.5z"/>
									</defs>
									<clipPath id="SVGID_00000132075645642888503080000008051003197297690523_">
										<use xlink:href="#SVGID_00000129177937466544149450000015539432228252140712_"  style="overflow:visible;"/>
									</clipPath>
									
										<use xlink:href="#SVGID_00000129177937466544149450000015539432228252140712_"  style="overflow:visible;fill:none;stroke:#20736F;stroke-miterlimit:10;"/>
								</g>
							</g>
							<g>
								<g>
									<defs>
										<path id="SVGID_00000080923040420483915550000017877046090749087911_" d="M377.8-176.5l-0.1,0.3
											C378.1-175.8,378-176,377.8-176.5z"/>
									</defs>
									<clipPath id="SVGID_00000156575176783570917870000001376873336374026166_">
										<use xlink:href="#SVGID_00000080923040420483915550000017877046090749087911_"  style="overflow:visible;"/>
									</clipPath>
									
										<use xlink:href="#SVGID_00000080923040420483915550000017877046090749087911_"  style="overflow:visible;fill:none;stroke:#20736F;stroke-miterlimit:10;"/>
								</g>
							</g>
							<g>
								<g>
									<defs>
										<path id="SVGID_00000005263955266851134090000007133504243490743477_" d="M377.8-176.5l-0.1,0.3
											C378.1-175.8,378-176,377.8-176.5z"/>
									</defs>
									<clipPath id="SVGID_00000142168970316826406370000005296808597286025401_">
										<use xlink:href="#SVGID_00000005263955266851134090000007133504243490743477_"  style="overflow:visible;"/>
									</clipPath>
									
										<use xlink:href="#SVGID_00000005263955266851134090000007133504243490743477_"  style="overflow:visible;fill:none;stroke:#20736F;stroke-miterlimit:10;"/>
								</g>
							</g>
						</g>
					</g>
					<g>
						<g>
							<g>
								<defs>
									<path id="SVGID_00000138564367216588256830000013390084431112519813_" d="M387.1-209.2c0.5-0.6,1-1.2,1.4-1.8
										c3.6-5.4,4.3-12.6,1.6-18.4c-1.5-3.3-4.1-6.2-7.6-7.5c-2.3-0.8-4.7-0.9-7.1-0.5c-1-1.3-2.4-2.5-4.1-3.4
										c-3.8-1.9-8.4-1.6-12.2,0c-7.1,3-11.9,10.7-11.3,18.4c0.2,3.3,1.8,7,4.9,8c-0.2,0.8-0.3,1.7-0.3,2.5
										c-0.8,0.6-1.5,1.3-1.8,2.4c-0.6,1.9-0.2,3.9,0.3,5.7c2.8,8.8,11.4,15.5,20.6,16c2.8,0.2,5.7-0.2,8.4-0.9
										c3-0.8,5.9-2.1,7.9-4.4c3.8-4.4,3.1-11.5-0.6-16C387.3-209,387.2-209.1,387.1-209.2z"/>
								</defs>
								<use xlink:href="#SVGID_00000138564367216588256830000013390084431112519813_"  style="overflow:visible;fill:#005F5A;"/>
								<clipPath id="SVGID_00000066511652711746457510000018393140694085239193_">
									<use xlink:href="#SVGID_00000138564367216588256830000013390084431112519813_"  style="overflow:visible;"/>
								</clipPath>
								
									<use xlink:href="#SVGID_00000138564367216588256830000013390084431112519813_"  style="overflow:visible;fill:none;stroke:#20736F;stroke-width:0.75;stroke-miterlimit:10;"/>
							</g>
						</g>
					</g>
					<g>
						<g>
							<g>
								<g>
									<g>
										<defs>
											<path id="SVGID_00000001651537587286665950000003925392220250473866_" d="M382.7-151.1c-3.3-4.6-8.4-8.3-12.3-12.4
												c-3.7-4.3-4.5-8.6-4.2-12c0-0.3,0.1-0.6,0.1-0.9c0.2-0.9,0.4-1.8,0.6-2.5c0.2-0.6,0.4-1.2,0.7-1.7c0.3-0.7,0.7-1.4,1-1.9
												c0.1-0.2,0.2-0.3,0.3-0.5c0,0,0,0,0,0c2.5-5.2-3.5-3.7-3.5-3.7c-9.9,3.5-20.9,4.6-20.9,4.6l-0.1,0.1
												c-2.8,0.4-5.6,1.1-8.4,2c-3.5,1.1-7,2.5-10.2,4.7c-3.2,2.2-6.1,5.3-7.5,8.8c0,0.1-0.1,0.2-0.1,0.3
												c-1.3,3.4-1.1,7.2,0.9,9.3c1.1,1.1,2.7,1.7,4.4,1.7c-0.7,1.3-1.3,2.6-1.7,3.9c-1.2,3.5-1.7,7.2-1.3,10.8
												c1.1,10.2,8.7,18.7,17.9,24c8.3,4.8,18.6,7.3,28.2,4.8c8.4-2.2,15.5-8.4,18.6-16C388.5-135.5,387.4-144.4,382.7-151.1z"
												/>
										</defs>
										<use xlink:href="#SVGID_00000001651537587286665950000003925392220250473866_"  style="overflow:visible;fill:#005F5A;"/>
										<clipPath id="SVGID_00000165916581211194391520000001298805072748444574_">
											<use xlink:href="#SVGID_00000001651537587286665950000003925392220250473866_"  style="overflow:visible;"/>
										</clipPath>
										
											<use xlink:href="#SVGID_00000001651537587286665950000003925392220250473866_"  style="overflow:visible;fill:none;stroke:#20736F;stroke-width:0.75;stroke-miterlimit:10;"/>
									</g>
								</g>
							</g>
						</g>
					</g>
				</g>
				<g>
					<g>
						<g>
							<path class="st2" d="M418.7-151c2.6-0.7,5.4-2.4,6.3-5.3c0.6-1.9,0.4-4.3-1.7-4.7c-1.7-0.3-4,1-5.7,1.2
								c-2.6,0.3-5.4-0.3-7.8-1.1c-4.1-1.4-7.9-4-10.8-7.3c-0.2,2.4,0,4.9,0.8,7.1C402.5-153.4,411.1-148.9,418.7-151z"/>
						</g>
					</g>
					<g>
						<g>
							<path class="st2" d="M317.6-240.2c-0.8,2.7,1,5.7,3.5,7c2.5,1.3,5.5,1.4,8.3,1.1c5.6-0.6,10.9-2.8,15.5-5.9
								c3-2.1,8.1-7,1.9-5.5c-5.9,1.4-10.2,1.2-16-0.1C326.5-244.7,319.2-246,317.6-240.2z"/>
						</g>
					</g>
					<g>
						<g>
							<path class="st2" d="M336.8-262.7c-1.1-4.1,0.2-4.8,1.5-8.1c1.2-3-0.1-6.8-2.6-8.8c-3.2-2.5-7.8-2.7-11.5-1.2
								c-6.5,2.5-11,9.5-10.6,16.4c0.3,4.7,2.6,9.1,5.9,12.4c7.9,8.1,21.5,9.9,31.2,4.1C344-250.2,338.6-255.9,336.8-262.7z"/>
						</g>
					</g>
					<g>
						<g>
							<polygon class="st2" points="404.4,-309.1 345.9,-256.2 358.9,-241.8 418.3,-293.8 							"/>
						</g>
					</g>
					<g>
						<g>
							<path class="st2" d="M410.7-272.9c1.1-3.1,2.3-3.1,4.7-4.8c2.2-1.6,3.1-4.6,2.3-6.9c-1-3-4.1-4.9-7.3-5.4
								c-5.6-1-11.8,1.9-14.7,6.7c-1.9,3.2-2.3,7.1-1.6,10.6c1.7,8.6,10.1,15.2,19.4,15.2C409.9-261.7,408.8-267.6,410.7-272.9z"/>
						</g>
					</g>
					<g>
						<g>
							<g>
								<g>
									<path class="st2" d="M324.8-221.1c0.1-2.4-0.4-4.9-1.6-7.1c-3.9-7.2-13.2-9-21.8-4.3l-17.4,9.5l28.7,52.4l22.9-12.5
										l2.2-1.2c9.6-5.2,13.1-17.3,7.9-26.9C341.4-218.7,332.9-222.4,324.8-221.1z"/>
								</g>
							</g>
						</g>
					</g>
					<g>
						<g>
							<polygon class="st2" points="338.7,-231.6 346.5,-229.4 338.7,-202.6 331,-205 							"/>
						</g>
					</g>
					<g>
						<g>
							<g>
								<g>
									<defs>
										<path id="SVGID_00000165927325180332213450000000866631601491868088_" d="M377.8-176.5l-0.1,0.3
											C378.1-175.8,378-176,377.8-176.5z"/>
									</defs>
									<clipPath id="SVGID_00000070797391723379530230000006432199512776885126_">
										<use xlink:href="#SVGID_00000165927325180332213450000000866631601491868088_"  style="overflow:visible;"/>
									</clipPath>
									
										<use xlink:href="#SVGID_00000165927325180332213450000000866631601491868088_"  style="overflow:visible;fill:none;stroke:#20736F;stroke-miterlimit:10;"/>
								</g>
							</g>
							<g>
								<g>
									<path class="st4" d="M377.8-176.5l-0.1,0.3C378.1-175.8,378-176,377.8-176.5z"/>
									<path class="st2" d="M430.1-194.7c1.8-1.3,3.3-3,4.3-5.1c3.1-6.9-0.7-14.5-8.9-18.2l-16.6-7.4l-22.2,49.8l21.7,9.7l2.1,0.9
										c9.1,4.1,19.8-0.1,23.9-9.1C437.5-181.4,435.6-189.6,430.1-194.7z"/>
								</g>
								<g>
									<defs>
										<path id="SVGID_00000116225579286859274050000010703458235009745852_" d="M377.8-176.5l-0.1,0.3
											C378.1-175.8,378-176,377.8-176.5z"/>
									</defs>
									<clipPath id="SVGID_00000049937330122491050480000013756267057567843488_">
										<use xlink:href="#SVGID_00000116225579286859274050000010703458235009745852_"  style="overflow:visible;"/>
									</clipPath>
									
										<use xlink:href="#SVGID_00000116225579286859274050000010703458235009745852_"  style="overflow:visible;fill:none;stroke:#20736F;stroke-miterlimit:10;"/>
								</g>
							</g>
							<g>
								<g>
									<defs>
										<path id="SVGID_00000008850055218100946640000016288086009512564378_" d="M377.8-176.5l-0.1,0.3
											C378.1-175.8,378-176,377.8-176.5z"/>
									</defs>
									<clipPath id="SVGID_00000137109810879250265760000013532482073774908036_">
										<use xlink:href="#SVGID_00000008850055218100946640000016288086009512564378_"  style="overflow:visible;"/>
									</clipPath>
									
										<use xlink:href="#SVGID_00000008850055218100946640000016288086009512564378_"  style="overflow:visible;fill:none;stroke:#20736F;stroke-miterlimit:10;"/>
								</g>
							</g>
						</g>
					</g>
					<g>
						<g>
							<g>
								<path class="st2" d="M394.4-215.1c-1.3,1.3-1.9,3.2-1.7,5c0.2,1.8,1.3,3.5,2.9,4.4c2.5,1.4,5.8,0.6,7.7-1.5
									c1.2-1.4,1.8-3.3,1.4-5.2C403.8-217,397.5-218.3,394.4-215.1z"/>
							</g>
						</g>
					</g>
					<g>
						<g>
							<polygon class="st2" points="390.1,-267.3 428,-235.9 363.5,-209.3 							"/>
						</g>
					</g>
					<g>
						<g>
							<path class="st2" d="M337.7-87.6c-0.8,2.7,0.9,5.7,3.3,7.1c2.4,1.4,5.4,1.6,8.2,1.3c5.6-0.5,11-2.5,15.6-5.5
								c3.1-2,8.3-6.8,2-5.5c-5.9,1.2-10.3,0.9-16-0.6C346.7-91.8,339.4-93.3,337.7-87.6z"/>
						</g>
					</g>
					<g>
						<g>
							<path class="st2" d="M357.5-109.5c-1-4.1,0.3-4.8,1.7-8.1c1.2-3,0.1-6.8-2.3-8.9c-3.1-2.6-7.7-2.9-11.5-1.6
								c-6.6,2.3-11.3,9.2-11,16.1c0.2,4.7,2.4,9.1,5.5,12.6c7.6,8.3,21.2,10.5,31.1,5C364.3-96.9,359-102.7,357.5-109.5z"/>
						</g>
					</g>
					<g>
						<g>
							<path class="st2" d="M399.6-184.6c-3.6-1.3-7.8-0.7-10.8,1.7c-1.8,1.4-3.2,3.5-5.4,4.1c-1.7,0.5-3.5-0.1-5.3-0.5
								c-4.8-1-9.9-0.4-14.3,1.7c-1.2,0.6-2.5,1.4-2.8,2.7c-0.3,1.2,0.5,2.6,1.5,3.3c1.1,0.7,2.4,0.9,3.7,0.9c0.4,0,0.7,0,1.1,0
								c1.3,0.1,3.3,0.7,4,3c0,0,0,0,0,0c0.1,0.7,0.5,1.5,0.9,2.1c0.8,1.1,1.9,1.9,3.1,2.5c1.7,0.8,3.6,1.4,5.4,1.2
								c1.9-0.2,3.7-1.1,4.8-2.6c1.4-2,1.2-4.7,2.1-6.9c0.8-1.9,2.5-3.4,4.4-4.1c1.4-0.5,2.9-0.5,4.4-0.6c1.5-0.1,3-0.3,4.3-1
								c1.3-0.7,2.4-2.1,2.3-3.6C403-182.6,401.3-183.9,399.6-184.6z"/>
						</g>
					</g>
					<g>
						<g>
							<g>
								<polygon class="st2" points="365.6,-138.1 393.3,-169.5 419.2,-120.8 								"/>
							</g>
						</g>
					</g>
					<g>
						<g>
							<polygon class="st2" points="426.3,-154.1 366.4,-102.8 379,-88.1 439.8,-138.4 							"/>
						</g>
					</g>
					<g>
						<g>
							<path class="st2" d="M431.6-117.7c1.2-3.1,2.4-3,4.8-4.7c2.2-1.5,3.2-4.5,2.4-6.8c-0.9-3-3.9-5-7.2-5.6
								c-5.5-1.1-11.9,1.6-14.9,6.3c-2,3.2-2.5,7-1.9,10.6c1.4,8.6,9.7,15.5,19,15.7C430.5-106.5,429.6-112.5,431.6-117.7z"/>
						</g>
					</g>
				</g>
			</g>
			<g>
				<g>
					<g>
						<g>
							<g>
								<g>
									<g>
										<defs>
											<path id="SVGID_00000116932782762911080550000008502427952899953028_" d="M77.4-304.9c-3.4-4.6-8.6-8.1-12.6-12.1
												c-3.9-4.2-4.8-8.4-4.5-11.9c0-0.3,0.1-0.6,0.1-0.9c0.1-0.9,0.3-1.8,0.6-2.6c0.2-0.6,0.4-1.2,0.6-1.7
												c0.3-0.7,0.7-1.4,1-1.9c0.1-0.2,0.2-0.3,0.3-0.5c0,0,0,0,0,0c2.3-5.2-3.6-3.6-3.6-3.6c-9.8,3.8-20.7,5.2-20.7,5.2
												l-0.1,0.1c-2.8,0.5-5.6,1.2-8.4,2.2c-3.5,1.2-7,2.7-10.1,5c-3.1,2.3-5.9,5.5-7.3,9c0,0.1-0.1,0.2-0.1,0.4
												c-1.2,3.5-0.9,7.2,1.2,9.3c1.1,1.1,2.7,1.6,4.5,1.6c-0.7,1.3-1.2,2.6-1.6,4c-1.1,3.5-1.5,7.2-1,10.8
												c1.4,10.1,9.2,18.5,18.5,23.5c8.5,4.6,18.8,6.8,28.3,4c8.3-2.5,15.3-8.8,18.2-16.5C83.6-289.5,82.4-298.4,77.4-304.9z"/>
										</defs>
										<use xlink:href="#SVGID_00000116932782762911080550000008502427952899953028_"  style="overflow:visible;fill:#005F5A;"/>
										<clipPath id="SVGID_00000168078530159508917750000010117555603224080259_">
											<use xlink:href="#SVGID_00000116932782762911080550000008502427952899953028_"  style="overflow:visible;"/>
										</clipPath>
										
											<use xlink:href="#SVGID_00000116932782762911080550000008502427952899953028_"  style="overflow:visible;fill:none;stroke:#20736F;stroke-width:0.75;stroke-miterlimit:10;"/>
									</g>
								</g>
							</g>
						</g>
					</g>
					<g>
						<g>
							<g>
								<g>
									<defs>
										<path id="SVGID_00000051348807430687108650000006656119560906676407_" d="M94.3-176.5l-0.1,0.3
											C94.6-175.8,94.5-176,94.3-176.5z"/>
									</defs>
									<clipPath id="SVGID_00000128484568901013747080000010030707603201839770_">
										<use xlink:href="#SVGID_00000051348807430687108650000006656119560906676407_"  style="overflow:visible;"/>
									</clipPath>
									
										<use xlink:href="#SVGID_00000051348807430687108650000006656119560906676407_"  style="overflow:visible;fill:none;stroke:#20736F;stroke-miterlimit:10;"/>
								</g>
							</g>
							<g>
								<g>
									<defs>
										<path id="SVGID_00000059293155284895139090000007049278725588955573_" d="M94.3-176.5l-0.1,0.3
											C94.6-175.8,94.5-176,94.3-176.5z"/>
									</defs>
									<clipPath id="SVGID_00000127762154114637666560000005249780969905469575_">
										<use xlink:href="#SVGID_00000059293155284895139090000007049278725588955573_"  style="overflow:visible;"/>
									</clipPath>
									
										<use xlink:href="#SVGID_00000059293155284895139090000007049278725588955573_"  style="overflow:visible;fill:none;stroke:#20736F;stroke-miterlimit:10;"/>
								</g>
							</g>
							<g>
								<g>
									<defs>
										<path id="SVGID_00000109012021707639515530000013279075872567066531_" d="M94.3-176.5l-0.1,0.3
											C94.6-175.8,94.5-176,94.3-176.5z"/>
									</defs>
									<clipPath id="SVGID_00000044146771074452443220000016710938038679064994_">
										<use xlink:href="#SVGID_00000109012021707639515530000013279075872567066531_"  style="overflow:visible;"/>
									</clipPath>
									
										<use xlink:href="#SVGID_00000109012021707639515530000013279075872567066531_"  style="overflow:visible;fill:none;stroke:#20736F;stroke-miterlimit:10;"/>
								</g>
							</g>
						</g>
					</g>
					<g>
						<g>
							<g>
								<defs>
									<path id="SVGID_00000137100381079320462740000012260708622220791449_" d="M103.6-209.2c0.5-0.6,1-1.2,1.4-1.8
										c3.6-5.4,4.3-12.6,1.6-18.4c-1.5-3.3-4.1-6.2-7.6-7.5c-2.3-0.8-4.7-0.9-7.1-0.5c-1-1.3-2.4-2.5-4.1-3.4
										c-3.8-1.9-8.4-1.6-12.2,0c-7.1,3-11.9,10.7-11.3,18.4c0.2,3.3,1.8,7,4.9,8c-0.2,0.8-0.3,1.7-0.3,2.5
										c-0.8,0.6-1.5,1.3-1.8,2.4c-0.6,1.9-0.2,3.9,0.3,5.7c2.8,8.8,11.4,15.5,20.6,16c2.8,0.2,5.7-0.2,8.4-0.9
										c3-0.8,5.9-2.1,7.9-4.4c3.8-4.4,3.1-11.5-0.6-16C103.8-209,103.7-209.1,103.6-209.2z"/>
								</defs>
								<clipPath id="SVGID_00000163753020835192844730000001549713445511111306_">
									<use xlink:href="#SVGID_00000137100381079320462740000012260708622220791449_"  style="overflow:visible;"/>
								</clipPath>
								
									<use xlink:href="#SVGID_00000137100381079320462740000012260708622220791449_"  style="overflow:visible;fill:none;stroke:#20736F;stroke-width:0.75;stroke-miterlimit:10;"/>
							</g>
						</g>
					</g>
					<g>
						<g>
							<g>
								<g>
									<g>
										<defs>
											<path id="SVGID_00000089546581337050261340000005895930642468190887_" d="M99.2-151.1c-3.3-4.6-8.4-8.3-12.3-12.4
												c-3.7-4.3-4.5-8.6-4.2-12c0-0.3,0.1-0.6,0.1-0.9c0.2-0.9,0.4-1.8,0.6-2.5c0.2-0.6,0.4-1.2,0.7-1.7c0.3-0.7,0.7-1.4,1-1.9
												c0.1-0.2,0.2-0.3,0.3-0.5c0,0,0,0,0,0c2.5-5.2-3.5-3.7-3.5-3.7c-9.9,3.5-20.9,4.6-20.9,4.6l-0.1,0.1
												c-2.8,0.4-5.6,1.1-8.4,2c-3.5,1.1-7,2.5-10.2,4.7c-3.2,2.2-6.1,5.3-7.5,8.8c0,0.1-0.1,0.2-0.1,0.3
												c-1.3,3.4-1.1,7.2,0.9,9.3c1.1,1.1,2.7,1.7,4.4,1.7c-0.7,1.3-1.3,2.6-1.7,3.9c-1.2,3.5-1.7,7.2-1.3,10.8
												c1.1,10.2,8.7,18.7,17.9,24c8.3,4.8,18.6,7.3,28.2,4.8c8.4-2.2,15.5-8.4,18.6-16C105-135.5,104-144.4,99.2-151.1z"/>
										</defs>
										<use xlink:href="#SVGID_00000089546581337050261340000005895930642468190887_"  style="overflow:visible;fill:#005F5A;"/>
										<clipPath id="SVGID_00000067216335645622702250000002142324161610482594_">
											<use xlink:href="#SVGID_00000089546581337050261340000005895930642468190887_"  style="overflow:visible;"/>
										</clipPath>
										
											<use xlink:href="#SVGID_00000089546581337050261340000005895930642468190887_"  style="overflow:visible;fill:none;stroke:#20736F;stroke-width:0.75;stroke-miterlimit:10;"/>
									</g>
									<g>
										<defs>
											<path id="SVGID_00000145036674190606335650000016720438372440013231_" d="M99.2-151.1c-3.3-4.6-8.4-8.3-12.3-12.4
												c-3.7-4.3-4.5-8.6-4.2-12c0-0.3,0.1-0.6,0.1-0.9c0.2-0.9,0.4-1.8,0.6-2.5c0.2-0.6,0.4-1.2,0.7-1.7c0.3-0.7,0.7-1.4,1-1.9
												c0.1-0.2,0.2-0.3,0.3-0.5c0,0,0,0,0,0c2.5-5.2-3.5-3.7-3.5-3.7c-9.9,3.5-20.9,4.6-20.9,4.6l-0.1,0.1
												c-2.8,0.4-5.6,1.1-8.4,2c-3.5,1.1-7,2.5-10.2,4.7c-3.2,2.2-6.1,5.3-7.5,8.8c0,0.1-0.1,0.2-0.1,0.3
												c-1.3,3.4-1.1,7.2,0.9,9.3c1.1,1.1,2.7,1.7,4.4,1.7c-0.7,1.3-1.3,2.6-1.7,3.9c-1.2,3.5-1.7,7.2-1.3,10.8
												c1.1,10.2,8.7,18.7,17.9,24c8.3,4.8,18.6,7.3,28.2,4.8c8.4-2.2,15.5-8.4,18.6-16C105-135.5,104-144.4,99.2-151.1z"/>
										</defs>
										<use xlink:href="#SVGID_00000145036674190606335650000016720438372440013231_"  style="overflow:visible;fill:#005F5A;"/>
										<clipPath id="SVGID_00000082357222870356175540000006616196832915395239_">
											<use xlink:href="#SVGID_00000145036674190606335650000016720438372440013231_"  style="overflow:visible;"/>
										</clipPath>
										
											<use xlink:href="#SVGID_00000145036674190606335650000016720438372440013231_"  style="overflow:visible;fill:none;stroke:#20736F;stroke-width:0.75;stroke-miterlimit:10;"/>
									</g>
								</g>
							</g>
							<g>
								<g>
									<g>
										<defs>
											<path id="SVGID_00000135669050544682680830000006429973612484063416_" d="M99.2-151.1c-3.3-4.6-8.4-8.3-12.3-12.4
												c-3.7-4.3-4.5-8.6-4.2-12c0-0.3,0.1-0.6,0.1-0.9c0.2-0.9,0.4-1.8,0.6-2.5c0.2-0.6,0.4-1.2,0.7-1.7c0.3-0.7,0.7-1.4,1-1.9
												c0.1-0.2,0.2-0.3,0.3-0.5c0,0,0,0,0,0c2.5-5.2-3.5-3.7-3.5-3.7c-9.9,3.5-20.9,4.6-20.9,4.6l-0.1,0.1
												c-2.8,0.4-5.6,1.1-8.4,2c-3.5,1.1-7,2.5-10.2,4.7c-3.2,2.2-6.1,5.3-7.5,8.8c0,0.1-0.1,0.2-0.1,0.3
												c-1.3,3.4-1.1,7.2,0.9,9.3c1.1,1.1,2.7,1.7,4.4,1.7c-0.7,1.3-1.3,2.6-1.7,3.9c-1.2,3.5-1.7,7.2-1.3,10.8
												c1.1,10.2,8.7,18.7,17.9,24c8.3,4.8,18.6,7.3,28.2,4.8c8.4-2.2,15.5-8.4,18.6-16C105-135.5,104-144.4,99.2-151.1z"/>
										</defs>
										<use xlink:href="#SVGID_00000135669050544682680830000006429973612484063416_"  style="overflow:visible;fill:#005F5A;"/>
										<clipPath id="SVGID_00000031921326328660334660000007088128330471750285_">
											<use xlink:href="#SVGID_00000135669050544682680830000006429973612484063416_"  style="overflow:visible;"/>
										</clipPath>
										
											<use xlink:href="#SVGID_00000135669050544682680830000006429973612484063416_"  style="overflow:visible;fill:none;stroke:#20736F;stroke-width:0.75;stroke-miterlimit:10;"/>
									</g>
									<g>
										<defs>
											<path id="SVGID_00000018230752581546122620000018023777764407332238_" d="M99.2-151.1c-3.3-4.6-8.4-8.3-12.3-12.4
												c-3.7-4.3-4.5-8.6-4.2-12c0-0.3,0.1-0.6,0.1-0.9c0.2-0.9,0.4-1.8,0.6-2.5c0.2-0.6,0.4-1.2,0.7-1.7c0.3-0.7,0.7-1.4,1-1.9
												c0.1-0.2,0.2-0.3,0.3-0.5c0,0,0,0,0,0c2.5-5.2-3.5-3.7-3.5-3.7c-9.9,3.5-20.9,4.6-20.9,4.6l-0.1,0.1
												c-2.8,0.4-5.6,1.1-8.4,2c-3.5,1.1-7,2.5-10.2,4.7c-3.2,2.2-6.1,5.3-7.5,8.8c0,0.1-0.1,0.2-0.1,0.3
												c-1.3,3.4-1.1,7.2,0.9,9.3c1.1,1.1,2.7,1.7,4.4,1.7c-0.7,1.3-1.3,2.6-1.7,3.9c-1.2,3.5-1.7,7.2-1.3,10.8
												c1.1,10.2,8.7,18.7,17.9,24c8.3,4.8,18.6,7.3,28.2,4.8c8.4-2.2,15.5-8.4,18.6-16C105-135.5,104-144.4,99.2-151.1z"/>
										</defs>
										<use xlink:href="#SVGID_00000018230752581546122620000018023777764407332238_"  style="overflow:visible;fill:#005F5A;"/>
										<clipPath id="SVGID_00000063615153908276796630000005605587462968274566_">
											<use xlink:href="#SVGID_00000018230752581546122620000018023777764407332238_"  style="overflow:visible;"/>
										</clipPath>
										
											<use xlink:href="#SVGID_00000018230752581546122620000018023777764407332238_"  style="overflow:visible;fill:none;stroke:#20736F;stroke-width:0.75;stroke-miterlimit:10;"/>
									</g>
								</g>
							</g>
							<g>
								<g>
									<g>
										<defs>
											<path id="SVGID_00000067205195685221395850000016316425692640486055_" d="M99.2-151.1c-3.3-4.6-8.4-8.3-12.3-12.4
												c-3.7-4.3-4.5-8.6-4.2-12c0-0.3,0.1-0.6,0.1-0.9c0.2-0.9,0.4-1.8,0.6-2.5c0.2-0.6,0.4-1.2,0.7-1.7c0.3-0.7,0.7-1.4,1-1.9
												c0.1-0.2,0.2-0.3,0.3-0.5c0,0,0,0,0,0c2.5-5.2-3.5-3.7-3.5-3.7c-9.9,3.5-20.9,4.6-20.9,4.6l-0.1,0.1
												c-2.8,0.4-5.6,1.1-8.4,2c-3.5,1.1-7,2.5-10.2,4.7c-3.2,2.2-6.1,5.3-7.5,8.8c0,0.1-0.1,0.2-0.1,0.3
												c-1.3,3.4-1.1,7.2,0.9,9.3c1.1,1.1,2.7,1.7,4.4,1.7c-0.7,1.3-1.3,2.6-1.7,3.9c-1.2,3.5-1.7,7.2-1.3,10.8
												c1.1,10.2,8.7,18.7,17.9,24c8.3,4.8,18.6,7.3,28.2,4.8c8.4-2.2,15.5-8.4,18.6-16C105-135.5,104-144.4,99.2-151.1z"/>
										</defs>
										<use xlink:href="#SVGID_00000067205195685221395850000016316425692640486055_"  style="overflow:visible;fill:#005F5A;"/>
										<clipPath id="SVGID_00000136371368972629673850000004041577854849568948_">
											<use xlink:href="#SVGID_00000067205195685221395850000016316425692640486055_"  style="overflow:visible;"/>
										</clipPath>
										
											<use xlink:href="#SVGID_00000067205195685221395850000016316425692640486055_"  style="overflow:visible;fill:none;stroke:#20736F;stroke-width:0.75;stroke-miterlimit:10;"/>
									</g>
									<g>
										<defs>
											<path id="SVGID_00000132069686793999778480000011482404543099184830_" d="M99.2-151.1c-3.3-4.6-8.4-8.3-12.3-12.4
												c-3.7-4.3-4.5-8.6-4.2-12c0-0.3,0.1-0.6,0.1-0.9c0.2-0.9,0.4-1.8,0.6-2.5c0.2-0.6,0.4-1.2,0.7-1.7c0.3-0.7,0.7-1.4,1-1.9
												c0.1-0.2,0.2-0.3,0.3-0.5c0,0,0,0,0,0c2.5-5.2-3.5-3.7-3.5-3.7c-9.9,3.5-20.9,4.6-20.9,4.6l-0.1,0.1
												c-2.8,0.4-5.6,1.1-8.4,2c-3.5,1.1-7,2.5-10.2,4.7c-3.2,2.2-6.1,5.3-7.5,8.8c0,0.1-0.1,0.2-0.1,0.3
												c-1.3,3.4-1.1,7.2,0.9,9.3c1.1,1.1,2.7,1.7,4.4,1.7c-0.7,1.3-1.3,2.6-1.7,3.9c-1.2,3.5-1.7,7.2-1.3,10.8
												c1.1,10.2,8.7,18.7,17.9,24c8.3,4.8,18.6,7.3,28.2,4.8c8.4-2.2,15.5-8.4,18.6-16C105-135.5,104-144.4,99.2-151.1z"/>
										</defs>
										<use xlink:href="#SVGID_00000132069686793999778480000011482404543099184830_"  style="overflow:visible;fill:#005F5A;"/>
										<clipPath id="SVGID_00000031173223053433258870000003717946905985136046_">
											<use xlink:href="#SVGID_00000132069686793999778480000011482404543099184830_"  style="overflow:visible;"/>
										</clipPath>
										
											<use xlink:href="#SVGID_00000132069686793999778480000011482404543099184830_"  style="overflow:visible;fill:none;stroke:#20736F;stroke-width:0.75;stroke-miterlimit:10;"/>
									</g>
								</g>
							</g>
						</g>
					</g>
				</g>
				<g>
					<g>
						<g>
							<path class="st2" d="M34.1-240.2c-0.8,2.7,1,5.7,3.5,7c2.5,1.3,5.5,1.4,8.3,1.1c5.6-0.6,10.9-2.8,15.5-5.9
								c3-2.1,8.1-7,1.9-5.5c-5.9,1.4-10.2,1.2-16-0.1C43.1-244.7,35.7-246,34.1-240.2z"/>
						</g>
					</g>
					<g>
						<g>
							<path class="st2" d="M53.3-262.7c-1.1-4.1,0.2-4.8,1.5-8.1c1.2-3-0.1-6.8-2.6-8.8c-3.2-2.5-7.8-2.7-11.5-1.2
								c-6.5,2.5-11,9.5-10.6,16.4c0.3,4.7,2.6,9.1,5.9,12.4c7.9,8.1,21.5,9.9,31.2,4.1C60.5-250.2,55.1-255.9,53.3-262.7z"/>
						</g>
					</g>
					<g>
						<g>
							<polygon class="st2" points="120.9,-310.5 62.4,-257.6 75.4,-243.2 134.8,-295.2 							"/>
						</g>
					</g>
					<g>
						<g>
							<path class="st2" d="M136.1-266.2c1.1-3.1,2.3-3.1,4.7-4.8c2.2-1.6,3.1-4.6,2.3-6.9c-1-3-4.1-4.9-7.3-5.4
								c-5.6-1-11.8,1.9-14.7,6.7c-1.9,3.2-2.3,7.1-1.6,10.6c1.7,8.6,10.1,15.2,19.4,15.2C135.3-255.1,134.2-261,136.1-266.2z"/>
						</g>
					</g>
					<g>
						<g>
							<g>
								<g>
									<path class="st2" d="M41.4-221.1c0.1-2.4-0.4-4.9-1.6-7.1c-3.9-7.2-13.2-9-21.8-4.3l-17.4,9.5l28.7,52.4L52.1-183l2.2-1.2
										c9.6-5.2,13.1-17.3,7.9-26.9C57.9-218.7,49.5-222.4,41.4-221.1z"/>
								</g>
							</g>
						</g>
					</g>
					<g>
						<g>
							<polygon class="st2" points="55.2,-231.6 63,-229.4 55.2,-202.6 47.6,-205 							"/>
						</g>
					</g>
					<g>
						<g>
							<g>
								<g>
									<defs>
										<path id="SVGID_00000171001029958179541800000001168682295907357846_" d="M94.3-176.5l-0.1,0.3
											C94.6-175.8,94.5-176,94.3-176.5z"/>
									</defs>
									<clipPath id="SVGID_00000097486888566696977890000008855009194308205734_">
										<use xlink:href="#SVGID_00000171001029958179541800000001168682295907357846_"  style="overflow:visible;"/>
									</clipPath>
									
										<use xlink:href="#SVGID_00000171001029958179541800000001168682295907357846_"  style="overflow:visible;fill:none;stroke:#20736F;stroke-miterlimit:10;"/>
								</g>
							</g>
							<g>
								<g>
									<path class="st4" d="M94.3-176.5l-0.1,0.3C94.6-175.8,94.5-176,94.3-176.5z"/>
									<path class="st2" d="M146.7-194.7c1.8-1.3,3.3-3,4.3-5.1c3.1-6.9-0.7-14.5-8.9-18.2l-16.6-7.4l-22.2,49.8l21.7,9.7l2.1,0.9
										c9.1,4.1,19.8-0.1,23.9-9.1C154.1-181.4,152.1-189.6,146.7-194.7z"/>
								</g>
								<g>
									<defs>
										<path id="SVGID_00000111892410350819289580000011502887609355387044_" d="M94.3-176.5l-0.1,0.3
											C94.6-175.8,94.5-176,94.3-176.5z"/>
									</defs>
									<clipPath id="SVGID_00000003789868590453341110000006506848614428418200_">
										<use xlink:href="#SVGID_00000111892410350819289580000011502887609355387044_"  style="overflow:visible;"/>
									</clipPath>
									
										<use xlink:href="#SVGID_00000111892410350819289580000011502887609355387044_"  style="overflow:visible;fill:none;stroke:#20736F;stroke-miterlimit:10;"/>
								</g>
							</g>
							<g>
								<g>
									<defs>
										<path id="SVGID_00000176019650382367568860000017878459357269831335_" d="M94.3-176.5l-0.1,0.3
											C94.6-175.8,94.5-176,94.3-176.5z"/>
									</defs>
									<clipPath id="SVGID_00000054228667665480538350000003154881648020894635_">
										<use xlink:href="#SVGID_00000176019650382367568860000017878459357269831335_"  style="overflow:visible;"/>
									</clipPath>
									
										<use xlink:href="#SVGID_00000176019650382367568860000017878459357269831335_"  style="overflow:visible;fill:none;stroke:#20736F;stroke-miterlimit:10;"/>
								</g>
							</g>
						</g>
					</g>
					<g>
						<g>
							<g>
								<path class="st2" d="M110.9-215.1c-1.3,1.3-1.9,3.2-1.7,5s1.3,3.5,2.9,4.4c2.5,1.4,5.8,0.6,7.7-1.5c1.2-1.4,1.8-3.3,1.4-5.2
									C120.3-217,114.1-218.3,110.9-215.1z"/>
							</g>
						</g>
					</g>
					<g>
						<g>
							<polygon class="st2" points="106.6,-267.3 144.5,-235.9 80,-209.3 							"/>
						</g>
					</g>
					<g>
						<g>
							<g>
								<g>
									<g>
										<defs>
											<path id="SVGID_00000044861049081482956870000005433666070996275383_" d="M99.2-151.1c-3.3-4.6-8.4-8.3-12.3-12.4
												c-3.7-4.3-4.5-8.6-4.2-12c0-0.3,0.1-0.6,0.1-0.9c0.2-0.9,0.4-1.8,0.6-2.5c0.2-0.6,0.4-1.2,0.7-1.7c0.3-0.7,0.7-1.4,1-1.9
												c0.1-0.2,0.2-0.3,0.3-0.5c0,0,0,0,0,0c2.5-5.2-3.5-3.7-3.5-3.7c-9.9,3.5-20.9,4.6-20.9,4.6l-0.1,0.1
												c-2.8,0.4-5.6,1.1-8.4,2c-3.5,1.1-7,2.5-10.2,4.7c-3.2,2.2-6.1,5.3-7.5,8.8c0,0.1-0.1,0.2-0.1,0.3
												c-1.3,3.4-1.1,7.2,0.9,9.3c1.1,1.1,2.7,1.7,4.4,1.7c-0.7,1.3-1.3,2.6-1.7,3.9c-1.2,3.5-1.7,7.2-1.3,10.8
												c1.1,10.2,8.7,18.7,17.9,24c8.3,4.8,18.6,7.3,28.2,4.8c8.4-2.2,15.5-8.4,18.6-16C105-135.5,104-144.4,99.2-151.1z"/>
										</defs>
										<use xlink:href="#SVGID_00000044861049081482956870000005433666070996275383_"  style="overflow:visible;fill:#005F5A;"/>
										<clipPath id="SVGID_00000081638940070479026910000006462652867217369004_">
											<use xlink:href="#SVGID_00000044861049081482956870000005433666070996275383_"  style="overflow:visible;"/>
										</clipPath>
										
											<use xlink:href="#SVGID_00000044861049081482956870000005433666070996275383_"  style="overflow:visible;fill:none;stroke:#20736F;stroke-width:0.75;stroke-miterlimit:10;"/>
									</g>
									<g>
										<defs>
											<path id="SVGID_00000111901727463198857030000013494062724902710178_" d="M99.2-151.1c-3.3-4.6-8.4-8.3-12.3-12.4
												c-3.7-4.3-4.5-8.6-4.2-12c0-0.3,0.1-0.6,0.1-0.9c0.2-0.9,0.4-1.8,0.6-2.5c0.2-0.6,0.4-1.2,0.7-1.7c0.3-0.7,0.7-1.4,1-1.9
												c0.1-0.2,0.2-0.3,0.3-0.5c0,0,0,0,0,0c2.5-5.2-3.5-3.7-3.5-3.7c-9.9,3.5-20.9,4.6-20.9,4.6l-0.1,0.1
												c-2.8,0.4-5.6,1.1-8.4,2c-3.5,1.1-7,2.5-10.2,4.7c-3.2,2.2-6.1,5.3-7.5,8.8c0,0.1-0.1,0.2-0.1,0.3
												c-1.3,3.4-1.1,7.2,0.9,9.3c1.1,1.1,2.7,1.7,4.4,1.7c-0.7,1.3-1.3,2.6-1.7,3.9c-1.2,3.5-1.7,7.2-1.3,10.8
												c1.1,10.2,8.7,18.7,17.9,24c8.3,4.8,18.6,7.3,28.2,4.8c8.4-2.2,15.5-8.4,18.6-16C105-135.5,104-144.4,99.2-151.1z"/>
										</defs>
										<use xlink:href="#SVGID_00000111901727463198857030000013494062724902710178_"  style="overflow:visible;fill:#005F5A;"/>
										<clipPath id="SVGID_00000079481933668956499420000004601522673643700396_">
											<use xlink:href="#SVGID_00000111901727463198857030000013494062724902710178_"  style="overflow:visible;"/>
										</clipPath>
										
											<use xlink:href="#SVGID_00000111901727463198857030000013494062724902710178_"  style="overflow:visible;fill:none;stroke:#20736F;stroke-width:0.75;stroke-miterlimit:10;"/>
									</g>
								</g>
							</g>
							<g>
								<g>
									<path class="st2" d="M99.2-151.1c-3.3-4.6-8.4-8.3-12.3-12.4c-3.7-4.3-4.5-8.6-4.2-12c0-0.3,0.1-0.6,0.1-0.9
										c0.2-0.9,0.4-1.8,0.6-2.5c0.2-0.6,0.4-1.2,0.7-1.7c0.3-0.7,0.7-1.4,1-1.9c0.1-0.2,0.2-0.3,0.3-0.5c0,0,0,0,0,0
										c2.5-5.2-3.5-3.7-3.5-3.7c-9.9,3.5-20.9,4.6-20.9,4.6l-0.1,0.1c-2.8,0.4-5.6,1.1-8.4,2c-3.5,1.1-7,2.5-10.2,4.7
										c-3.2,2.2-6.1,5.3-7.5,8.8c0,0.1-0.1,0.2-0.1,0.3c-1.3,3.4-1.1,7.2,0.9,9.3c1.1,1.1,2.7,1.7,4.4,1.7
										c-0.7,1.3-1.3,2.6-1.7,3.9c-1.2,3.5-1.7,7.2-1.3,10.8c1.1,10.2,8.7,18.7,17.9,24c8.3,4.8,18.6,7.3,28.2,4.8
										c8.4-2.2,15.5-8.4,18.6-16C105-135.5,104-144.4,99.2-151.1z"/>
									<g>
										<defs>
											<path id="SVGID_00000132809090616445994420000012599530382553970583_" d="M99.2-151.1c-3.3-4.6-8.4-8.3-12.3-12.4
												c-3.7-4.3-4.5-8.6-4.2-12c0-0.3,0.1-0.6,0.1-0.9c0.2-0.9,0.4-1.8,0.6-2.5c0.2-0.6,0.4-1.2,0.7-1.7c0.3-0.7,0.7-1.4,1-1.9
												c0.1-0.2,0.2-0.3,0.3-0.5c0,0,0,0,0,0c2.5-5.2-3.5-3.7-3.5-3.7c-9.9,3.5-20.9,4.6-20.9,4.6l-0.1,0.1
												c-2.8,0.4-5.6,1.1-8.4,2c-3.5,1.1-7,2.5-10.2,4.7c-3.2,2.2-6.1,5.3-7.5,8.8c0,0.1-0.1,0.2-0.1,0.3
												c-1.3,3.4-1.1,7.2,0.9,9.3c1.1,1.1,2.7,1.7,4.4,1.7c-0.7,1.3-1.3,2.6-1.7,3.9c-1.2,3.5-1.7,7.2-1.3,10.8
												c1.1,10.2,8.7,18.7,17.9,24c8.3,4.8,18.6,7.3,28.2,4.8c8.4-2.2,15.5-8.4,18.6-16C105-135.5,104-144.4,99.2-151.1z"/>
										</defs>
										<use xlink:href="#SVGID_00000132809090616445994420000012599530382553970583_"  style="overflow:visible;fill:#005F5A;"/>
										<clipPath id="SVGID_00000046313265700199500290000013882114390820105401_">
											<use xlink:href="#SVGID_00000132809090616445994420000012599530382553970583_"  style="overflow:visible;"/>
										</clipPath>
										
											<use xlink:href="#SVGID_00000132809090616445994420000012599530382553970583_"  style="overflow:visible;fill:none;stroke:#20736F;stroke-width:0.75;stroke-miterlimit:10;"/>
									</g>
									<g>
										<defs>
											<path id="SVGID_00000160878536815760179140000001432827486903219856_" d="M99.2-151.1c-3.3-4.6-8.4-8.3-12.3-12.4
												c-3.7-4.3-4.5-8.6-4.2-12c0-0.3,0.1-0.6,0.1-0.9c0.2-0.9,0.4-1.8,0.6-2.5c0.2-0.6,0.4-1.2,0.7-1.7c0.3-0.7,0.7-1.4,1-1.9
												c0.1-0.2,0.2-0.3,0.3-0.5c0,0,0,0,0,0c2.5-5.2-3.5-3.7-3.5-3.7c-9.9,3.5-20.9,4.6-20.9,4.6l-0.1,0.1
												c-2.8,0.4-5.6,1.1-8.4,2c-3.5,1.1-7,2.5-10.2,4.7c-3.2,2.2-6.1,5.3-7.5,8.8c0,0.1-0.1,0.2-0.1,0.3
												c-1.3,3.4-1.1,7.2,0.9,9.3c1.1,1.1,2.7,1.7,4.4,1.7c-0.7,1.3-1.3,2.6-1.7,3.9c-1.2,3.5-1.7,7.2-1.3,10.8
												c1.1,10.2,8.7,18.7,17.9,24c8.3,4.8,18.6,7.3,28.2,4.8c8.4-2.2,15.5-8.4,18.6-16C105-135.5,104-144.4,99.2-151.1z"/>
										</defs>
										<use xlink:href="#SVGID_00000160878536815760179140000001432827486903219856_"  style="overflow:visible;fill:#005F5A;"/>
										<clipPath id="SVGID_00000078757219583477470000000000502207129033298585_">
											<use xlink:href="#SVGID_00000160878536815760179140000001432827486903219856_"  style="overflow:visible;"/>
										</clipPath>
										
											<use xlink:href="#SVGID_00000160878536815760179140000001432827486903219856_"  style="overflow:visible;fill:none;stroke:#20736F;stroke-width:0.75;stroke-miterlimit:10;"/>
									</g>
								</g>
							</g>
							<g>
								<g>
									<g>
										<defs>
											<path id="SVGID_00000166664869455349751330000012233566235866732942_" d="M99.2-151.1c-3.3-4.6-8.4-8.3-12.3-12.4
												c-3.7-4.3-4.5-8.6-4.2-12c0-0.3,0.1-0.6,0.1-0.9c0.2-0.9,0.4-1.8,0.6-2.5c0.2-0.6,0.4-1.2,0.7-1.7c0.3-0.7,0.7-1.4,1-1.9
												c0.1-0.2,0.2-0.3,0.3-0.5c0,0,0,0,0,0c2.5-5.2-3.5-3.7-3.5-3.7c-9.9,3.5-20.9,4.6-20.9,4.6l-0.1,0.1
												c-2.8,0.4-5.6,1.1-8.4,2c-3.5,1.1-7,2.5-10.2,4.7c-3.2,2.2-6.1,5.3-7.5,8.8c0,0.1-0.1,0.2-0.1,0.3
												c-1.3,3.4-1.1,7.2,0.9,9.3c1.1,1.1,2.7,1.7,4.4,1.7c-0.7,1.3-1.3,2.6-1.7,3.9c-1.2,3.5-1.7,7.2-1.3,10.8
												c1.1,10.2,8.7,18.7,17.9,24c8.3,4.8,18.6,7.3,28.2,4.8c8.4-2.2,15.5-8.4,18.6-16C105-135.5,104-144.4,99.2-151.1z"/>
										</defs>
										<use xlink:href="#SVGID_00000166664869455349751330000012233566235866732942_"  style="overflow:visible;fill:#005F5A;"/>
										<clipPath id="SVGID_00000076605239793607543290000012235277912610838146_">
											<use xlink:href="#SVGID_00000166664869455349751330000012233566235866732942_"  style="overflow:visible;"/>
										</clipPath>
										
											<use xlink:href="#SVGID_00000166664869455349751330000012233566235866732942_"  style="overflow:visible;fill:none;stroke:#20736F;stroke-width:0.75;stroke-miterlimit:10;"/>
									</g>
									<g>
										<defs>
											<path id="SVGID_00000015351330325513560190000004072011477104421560_" d="M99.2-151.1c-3.3-4.6-8.4-8.3-12.3-12.4
												c-3.7-4.3-4.5-8.6-4.2-12c0-0.3,0.1-0.6,0.1-0.9c0.2-0.9,0.4-1.8,0.6-2.5c0.2-0.6,0.4-1.2,0.7-1.7c0.3-0.7,0.7-1.4,1-1.9
												c0.1-0.2,0.2-0.3,0.3-0.5c0,0,0,0,0,0c2.5-5.2-3.5-3.7-3.5-3.7c-9.9,3.5-20.9,4.6-20.9,4.6l-0.1,0.1
												c-2.8,0.4-5.6,1.1-8.4,2c-3.5,1.1-7,2.5-10.2,4.7c-3.2,2.2-6.1,5.3-7.5,8.8c0,0.1-0.1,0.2-0.1,0.3
												c-1.3,3.4-1.1,7.2,0.9,9.3c1.1,1.1,2.7,1.7,4.4,1.7c-0.7,1.3-1.3,2.6-1.7,3.9c-1.2,3.5-1.7,7.2-1.3,10.8
												c1.1,10.2,8.7,18.7,17.9,24c8.3,4.8,18.6,7.3,28.2,4.8c8.4-2.2,15.5-8.4,18.6-16C105-135.5,104-144.4,99.2-151.1z"/>
										</defs>
										<use xlink:href="#SVGID_00000015351330325513560190000004072011477104421560_"  style="overflow:visible;fill:#005F5A;"/>
										<clipPath id="SVGID_00000087384464933376847400000001010478396979754136_">
											<use xlink:href="#SVGID_00000015351330325513560190000004072011477104421560_"  style="overflow:visible;"/>
										</clipPath>
										
											<use xlink:href="#SVGID_00000015351330325513560190000004072011477104421560_"  style="overflow:visible;fill:none;stroke:#20736F;stroke-width:0.75;stroke-miterlimit:10;"/>
									</g>
								</g>
							</g>
						</g>
					</g>
					<g>
						<g>
							<path class="st2" d="M54.2-87.6c-0.8,2.7,0.9,5.7,3.3,7.1c2.4,1.4,5.4,1.6,8.2,1.3c5.6-0.5,11-2.5,15.6-5.5
								c3.1-2,8.3-6.8,2-5.5c-5.9,1.2-10.3,0.9-16-0.6C63.2-91.8,56-93.3,54.2-87.6z"/>
						</g>
					</g>
					<g>
						<g>
							<path class="st2" d="M74-109.5c-1-4.1,0.3-4.8,1.7-8.1c1.2-3,0.1-6.8-2.3-8.9c-3.1-2.6-7.7-2.9-11.5-1.6
								c-6.6,2.3-11.3,9.2-11,16.1c0.2,4.7,2.4,9.1,5.5,12.6c7.6,8.3,21.2,10.5,31.1,5C80.8-96.9,75.6-102.7,74-109.5z"/>
						</g>
					</g>
					<g>
						<g>
							<g>
								<polygon class="st2" points="92.9,-140.1 120.5,-171.6 146.4,-122.9 								"/>
							</g>
						</g>
					</g>
					<g>
						<g>
							<polygon class="st2" points="142.8,-154.1 82.9,-102.8 95.5,-88.1 156.3,-138.4 							"/>
						</g>
					</g>
					<g>
						<g>
							<path class="st2" d="M146.7-119.8c1.2-3.1,2.4-3,4.8-4.7c2.2-1.5,3.2-4.5,2.4-6.8c-0.9-3-3.9-5-7.2-5.6
								c-5.5-1.1-11.9,1.6-14.9,6.3c-2,3.2-2.5,7-1.9,10.6c1.4,8.6,9.7,15.5,19,15.7C145.6-108.7,144.7-114.7,146.7-119.8z"/>
						</g>
					</g>
				</g>
				<g>
					<g>
						<g>
							<g>
								<g>
									<g>
										<defs>
											<path id="SVGID_00000048490593500665548020000016557545446766949028_" d="M99.2-151.1c-3.3-4.6-8.4-8.3-12.3-12.4
												c-3.7-4.3-4.5-8.6-4.2-12c0-0.3,0.1-0.6,0.1-0.9c0.2-0.9,0.4-1.8,0.6-2.5c0.2-0.6,0.4-1.2,0.7-1.7c0.3-0.7,0.7-1.4,1-1.9
												c0.1-0.2,0.2-0.3,0.3-0.5c0,0,0,0,0,0c2.5-5.2-3.5-3.7-3.5-3.7c-9.9,3.5-20.9,4.6-20.9,4.6l-0.1,0.1
												c-2.8,0.4-5.6,1.1-8.4,2c-3.5,1.1-7,2.5-10.2,4.7c-3.2,2.2-6.1,5.3-7.5,8.8c0,0.1-0.1,0.2-0.1,0.3
												c-1.3,3.4-1.1,7.2,0.9,9.3c1.1,1.1,2.7,1.7,4.4,1.7c-0.7,1.3-1.3,2.6-1.7,3.9c-1.2,3.5-1.7,7.2-1.3,10.8
												c1.1,10.2,8.7,18.7,17.9,24c8.3,4.8,18.6,7.3,28.2,4.8c8.4-2.2,15.5-8.4,18.6-16C105-135.5,104-144.4,99.2-151.1z"/>
										</defs>
										<use xlink:href="#SVGID_00000048490593500665548020000016557545446766949028_"  style="overflow:visible;fill:#005F5A;"/>
										<clipPath id="SVGID_00000090286094947659711700000004400569017137409955_">
											<use xlink:href="#SVGID_00000048490593500665548020000016557545446766949028_"  style="overflow:visible;"/>
										</clipPath>
										
											<use xlink:href="#SVGID_00000048490593500665548020000016557545446766949028_"  style="overflow:visible;fill:none;stroke:#20736F;stroke-width:0.75;stroke-miterlimit:10;"/>
									</g>
									<g>
										<defs>
											<path id="SVGID_00000181792834423261553870000001461362600041236893_" d="M99.2-151.1c-3.3-4.6-8.4-8.3-12.3-12.4
												c-3.7-4.3-4.5-8.6-4.2-12c0-0.3,0.1-0.6,0.1-0.9c0.2-0.9,0.4-1.8,0.6-2.5c0.2-0.6,0.4-1.2,0.7-1.7c0.3-0.7,0.7-1.4,1-1.9
												c0.1-0.2,0.2-0.3,0.3-0.5c0,0,0,0,0,0c2.5-5.2-3.5-3.7-3.5-3.7c-9.9,3.5-20.9,4.6-20.9,4.6l-0.1,0.1
												c-2.8,0.4-5.6,1.1-8.4,2c-3.5,1.1-7,2.5-10.2,4.7c-3.2,2.2-6.1,5.3-7.5,8.8c0,0.1-0.1,0.2-0.1,0.3
												c-1.3,3.4-1.1,7.2,0.9,9.3c1.1,1.1,2.7,1.7,4.4,1.7c-0.7,1.3-1.3,2.6-1.7,3.9c-1.2,3.5-1.7,7.2-1.3,10.8
												c1.1,10.2,8.7,18.7,17.9,24c8.3,4.8,18.6,7.3,28.2,4.8c8.4-2.2,15.5-8.4,18.6-16C105-135.5,104-144.4,99.2-151.1z"/>
										</defs>
										<use xlink:href="#SVGID_00000181792834423261553870000001461362600041236893_"  style="overflow:visible;fill:#005F5A;"/>
										<clipPath id="SVGID_00000142892395230154994760000004598825852569881229_">
											<use xlink:href="#SVGID_00000181792834423261553870000001461362600041236893_"  style="overflow:visible;"/>
										</clipPath>
										
											<use xlink:href="#SVGID_00000181792834423261553870000001461362600041236893_"  style="overflow:visible;fill:none;stroke:#20736F;stroke-width:0.75;stroke-miterlimit:10;"/>
									</g>
								</g>
							</g>
							<g>
								<g>
									<g>
										<defs>
											<path id="SVGID_00000094613374725433031830000011386567163780263348_" d="M99.2-151.1c-3.3-4.6-8.4-8.3-12.3-12.4
												c-3.7-4.3-4.5-8.6-4.2-12c0-0.3,0.1-0.6,0.1-0.9c0.2-0.9,0.4-1.8,0.6-2.5c0.2-0.6,0.4-1.2,0.7-1.7c0.3-0.7,0.7-1.4,1-1.9
												c0.1-0.2,0.2-0.3,0.3-0.5c0,0,0,0,0,0c2.5-5.2-3.5-3.7-3.5-3.7c-9.9,3.5-20.9,4.6-20.9,4.6l-0.1,0.1
												c-2.8,0.4-5.6,1.1-8.4,2c-3.5,1.1-7,2.5-10.2,4.7c-3.2,2.2-6.1,5.3-7.5,8.8c0,0.1-0.1,0.2-0.1,0.3
												c-1.3,3.4-1.1,7.2,0.9,9.3c1.1,1.1,2.7,1.7,4.4,1.7c-0.7,1.3-1.3,2.6-1.7,3.9c-1.2,3.5-1.7,7.2-1.3,10.8
												c1.1,10.2,8.7,18.7,17.9,24c8.3,4.8,18.6,7.3,28.2,4.8c8.4-2.2,15.5-8.4,18.6-16C105-135.5,104-144.4,99.2-151.1z"/>
										</defs>
										<use xlink:href="#SVGID_00000094613374725433031830000011386567163780263348_"  style="overflow:visible;fill:#005F5A;"/>
										<clipPath id="SVGID_00000167391873469644376300000000345880145980171155_">
											<use xlink:href="#SVGID_00000094613374725433031830000011386567163780263348_"  style="overflow:visible;"/>
										</clipPath>
										
											<use xlink:href="#SVGID_00000094613374725433031830000011386567163780263348_"  style="overflow:visible;fill:none;stroke:#20736F;stroke-width:0.75;stroke-miterlimit:10;"/>
									</g>
									<g>
										<defs>
											<path id="SVGID_00000149361400240339419350000004619145883871126927_" d="M99.2-151.1c-3.3-4.6-8.4-8.3-12.3-12.4
												c-3.7-4.3-4.5-8.6-4.2-12c0-0.3,0.1-0.6,0.1-0.9c0.2-0.9,0.4-1.8,0.6-2.5c0.2-0.6,0.4-1.2,0.7-1.7c0.3-0.7,0.7-1.4,1-1.9
												c0.1-0.2,0.2-0.3,0.3-0.5c0,0,0,0,0,0c2.5-5.2-3.5-3.7-3.5-3.7c-9.9,3.5-20.9,4.6-20.9,4.6l-0.1,0.1
												c-2.8,0.4-5.6,1.1-8.4,2c-3.5,1.1-7,2.5-10.2,4.7c-3.2,2.2-6.1,5.3-7.5,8.8c0,0.1-0.1,0.2-0.1,0.3
												c-1.3,3.4-1.1,7.2,0.9,9.3c1.1,1.1,2.7,1.7,4.4,1.7c-0.7,1.3-1.3,2.6-1.7,3.9c-1.2,3.5-1.7,7.2-1.3,10.8
												c1.1,10.2,8.7,18.7,17.9,24c8.3,4.8,18.6,7.3,28.2,4.8c8.4-2.2,15.5-8.4,18.6-16C105-135.5,104-144.4,99.2-151.1z"/>
										</defs>
										<use xlink:href="#SVGID_00000149361400240339419350000004619145883871126927_"  style="overflow:visible;fill:#005F5A;"/>
										<clipPath id="SVGID_00000121984504265639590120000014940842645718941100_">
											<use xlink:href="#SVGID_00000149361400240339419350000004619145883871126927_"  style="overflow:visible;"/>
										</clipPath>
										
											<use xlink:href="#SVGID_00000149361400240339419350000004619145883871126927_"  style="overflow:visible;fill:none;stroke:#20736F;stroke-width:0.75;stroke-miterlimit:10;"/>
									</g>
								</g>
							</g>
							<g>
								<g>
									<g>
										<defs>
											<path id="SVGID_00000040550155144418466300000014642169936516622753_" d="M99.2-151.1c-3.3-4.6-8.4-8.3-12.3-12.4
												c-3.7-4.3-4.5-8.6-4.2-12c0-0.3,0.1-0.6,0.1-0.9c0.2-0.9,0.4-1.8,0.6-2.5c0.2-0.6,0.4-1.2,0.7-1.7c0.3-0.7,0.7-1.4,1-1.9
												c0.1-0.2,0.2-0.3,0.3-0.5c0,0,0,0,0,0c2.5-5.2-3.5-3.7-3.5-3.7c-9.9,3.5-20.9,4.6-20.9,4.6l-0.1,0.1
												c-2.8,0.4-5.6,1.1-8.4,2c-3.5,1.1-7,2.5-10.2,4.7c-3.2,2.2-6.1,5.3-7.5,8.8c0,0.1-0.1,0.2-0.1,0.3
												c-1.3,3.4-1.1,7.2,0.9,9.3c1.1,1.1,2.7,1.7,4.4,1.7c-0.7,1.3-1.3,2.6-1.7,3.9c-1.2,3.5-1.7,7.2-1.3,10.8
												c1.1,10.2,8.7,18.7,17.9,24c8.3,4.8,18.6,7.3,28.2,4.8c8.4-2.2,15.5-8.4,18.6-16C105-135.5,104-144.4,99.2-151.1z"/>
										</defs>
										<use xlink:href="#SVGID_00000040550155144418466300000014642169936516622753_"  style="overflow:visible;fill:#005F5A;"/>
										<clipPath id="SVGID_00000182486280544524019180000008627536872965658500_">
											<use xlink:href="#SVGID_00000040550155144418466300000014642169936516622753_"  style="overflow:visible;"/>
										</clipPath>
										
											<use xlink:href="#SVGID_00000040550155144418466300000014642169936516622753_"  style="overflow:visible;fill:none;stroke:#20736F;stroke-width:0.75;stroke-miterlimit:10;"/>
									</g>
									<g>
										<defs>
											<path id="SVGID_00000029732107876582593570000006205716308168215742_" d="M99.2-151.1c-3.3-4.6-8.4-8.3-12.3-12.4
												c-3.7-4.3-4.5-8.6-4.2-12c0-0.3,0.1-0.6,0.1-0.9c0.2-0.9,0.4-1.8,0.6-2.5c0.2-0.6,0.4-1.2,0.7-1.7c0.3-0.7,0.7-1.4,1-1.9
												c0.1-0.2,0.2-0.3,0.3-0.5c0,0,0,0,0,0c2.5-5.2-3.5-3.7-3.5-3.7c-9.9,3.5-20.9,4.6-20.9,4.6l-0.1,0.1
												c-2.8,0.4-5.6,1.1-8.4,2c-3.5,1.1-7,2.5-10.2,4.7c-3.2,2.2-6.1,5.3-7.5,8.8c0,0.1-0.1,0.2-0.1,0.3
												c-1.3,3.4-1.1,7.2,0.9,9.3c1.1,1.1,2.7,1.7,4.4,1.7c-0.7,1.3-1.3,2.6-1.7,3.9c-1.2,3.5-1.7,7.2-1.3,10.8
												c1.1,10.2,8.7,18.7,17.9,24c8.3,4.8,18.6,7.3,28.2,4.8c8.4-2.2,15.5-8.4,18.6-16C105-135.5,104-144.4,99.2-151.1z"/>
										</defs>
										<use xlink:href="#SVGID_00000029732107876582593570000006205716308168215742_"  style="overflow:visible;fill:#005F5A;"/>
										<clipPath id="SVGID_00000170961314957097938760000007456583553468982419_">
											<use xlink:href="#SVGID_00000029732107876582593570000006205716308168215742_"  style="overflow:visible;"/>
										</clipPath>
										
											<use xlink:href="#SVGID_00000029732107876582593570000006205716308168215742_"  style="overflow:visible;fill:none;stroke:#20736F;stroke-width:0.75;stroke-miterlimit:10;"/>
									</g>
								</g>
							</g>
						</g>
					</g>
				</g>
			</g>
		</g>
		<g>
			<g>
				<path class="st4" d="M242.4-79.3l0,0.3C243.1-78.8,242.9-78.9,242.4-79.3z"/>
			</g>
			<g>
				<defs>
					<path id="SVGID_00000109711392717420218010000015939488228895017623_" d="M242.4-79.3l0,0.3C243.1-78.8,242.9-78.9,242.4-79.3z
						 M299.7-103.8c0.3,10.9-8.4,20.1-19.4,20.4l-2.5,0.1l-26.2,0.7l-1.5-60l19.9-0.5c9.9-0.3,17.3,5.6,17.5,13.9
						c0.1,2.5-0.6,5-1.8,7.1C293.7-119.7,299.5-112.4,299.7-103.8z"/>
				</defs>
				<use xlink:href="#SVGID_00000109711392717420218010000015939488228895017623_"  style="overflow:visible;fill:#005F5A;"/>
				<clipPath id="SVGID_00000096061210050660819480000003312510852018252204_">
					<use xlink:href="#SVGID_00000109711392717420218010000015939488228895017623_"  style="overflow:visible;"/>
				</clipPath>
				
					<use xlink:href="#SVGID_00000109711392717420218010000015939488228895017623_"  style="overflow:visible;fill:none;stroke:#20736F;stroke-width:0.75;stroke-miterlimit:10;"/>
			</g>
		</g>
		<g>
			<g>
				<g>
					<g>
						<g>
							<g>
								<g>
									<g>
										<defs>
											<path id="SVGID_00000046341355365783418730000016584907454849222305_" d="M155.3-27.7l-0.1,0.3
												C155.7-27,155.6-27.2,155.3-27.7z"/>
										</defs>
										<clipPath id="SVGID_00000079478238957429339650000017735718643705333917_">
											<use xlink:href="#SVGID_00000046341355365783418730000016584907454849222305_"  style="overflow:visible;"/>
										</clipPath>
										
											<use xlink:href="#SVGID_00000046341355365783418730000016584907454849222305_"  style="overflow:visible;fill:none;stroke:#20736F;stroke-miterlimit:10;"/>
									</g>
								</g>
								<g>
									<g>
										<defs>
											<path id="SVGID_00000085943073725302911190000010337990966067343544_" d="M155.3-27.7l-0.1,0.3
												C155.7-27,155.6-27.2,155.3-27.7z"/>
										</defs>
										<clipPath id="SVGID_00000122701582119071769710000017549949982582201791_">
											<use xlink:href="#SVGID_00000085943073725302911190000010337990966067343544_"  style="overflow:visible;"/>
										</clipPath>
										
											<use xlink:href="#SVGID_00000085943073725302911190000010337990966067343544_"  style="overflow:visible;fill:none;stroke:#20736F;stroke-miterlimit:10;"/>
									</g>
								</g>
								<g>
									<g>
										<defs>
											<path id="SVGID_00000152977750007679575690000006085687869158000804_" d="M155.3-27.7l-0.1,0.3
												C155.7-27,155.6-27.2,155.3-27.7z"/>
										</defs>
										<clipPath id="SVGID_00000059994114129301145680000002760115589012264344_">
											<use xlink:href="#SVGID_00000152977750007679575690000006085687869158000804_"  style="overflow:visible;"/>
										</clipPath>
										
											<use xlink:href="#SVGID_00000152977750007679575690000006085687869158000804_"  style="overflow:visible;fill:none;stroke:#20736F;stroke-miterlimit:10;"/>
									</g>
								</g>
							</g>
						</g>
						<g>
							<g>
								<g>
									<defs>
										<path id="SVGID_00000121260103841085004220000015769824650931972494_" d="M164.7-60.3c0.5-0.6,1-1.2,1.4-1.8
											c3.6-5.4,4.3-12.6,1.6-18.4c-1.5-3.3-4.1-6.2-7.6-7.5c-2.3-0.8-4.7-0.9-7.1-0.5c-1-1.3-2.4-2.5-4.1-3.4
											c-3.8-1.9-8.4-1.6-12.2,0c-7.1,3-11.9,10.7-11.3,18.4c0.2,3.3,1.8,7,4.9,8c-0.2,0.8-0.3,1.7-0.3,2.5
											c-0.8,0.6-1.5,1.3-1.8,2.4c-0.6,1.9-0.2,3.9,0.3,5.7c2.8,8.8,11.4,15.5,20.6,16c2.8,0.2,5.7-0.2,8.4-0.9
											c3-0.8,5.9-2.1,7.9-4.4c3.8-4.4,3.1-11.5-0.6-16C164.8-60.2,164.8-60.3,164.7-60.3z"/>
									</defs>
									<use xlink:href="#SVGID_00000121260103841085004220000015769824650931972494_"  style="overflow:visible;fill:#005F5A;"/>
									<clipPath id="SVGID_00000074437447368719956690000014044010449248155821_">
										<use xlink:href="#SVGID_00000121260103841085004220000015769824650931972494_"  style="overflow:visible;"/>
									</clipPath>
									
										<use xlink:href="#SVGID_00000121260103841085004220000015769824650931972494_"  style="overflow:visible;fill:none;stroke:#20736F;stroke-width:0.75;stroke-miterlimit:10;"/>
								</g>
							</g>
						</g>
					</g>
					<g>
						<g>
							<defs>
								<path id="SVGID_00000092451408913360918210000000572652126866570386_" d="M252.2-41.4c-1.6-0.8-3.7-1.4-5.8-1.5
									c-1.5-4.7-5.5-9-9.6-10c-2.8-0.7-5.8-0.1-8.4,1.2c-2.6,1.3-4.8,3.2-6.8,5.3c-3,3.1-5.6,7.4-4.3,11.5
									c0.4,1.3,1.1,2.3,2.1,3.2c-0.2,0.2-0.4,0.5-0.5,0.7c-1.8,2.8-2.6,6.4-1.2,9.4c1.1,2.3,3.3,3.8,5.7,4.5c2.4,0.7,5,0.5,7.4,0
									c1.9-0.4,3.7-1.1,5.4-1.9c1.8,0.7,3.8,0.9,5.8,0.8c3.9-0.2,7.8-1.4,10.9-3.7s5.1-5.5,5.5-8.9
									C258.8-34.9,256.4-39.2,252.2-41.4z"/>
							</defs>
							<use xlink:href="#SVGID_00000092451408913360918210000000572652126866570386_"  style="overflow:visible;fill:#005F5A;"/>
							<clipPath id="SVGID_00000067195102908615445460000007929814014323801229_">
								<use xlink:href="#SVGID_00000092451408913360918210000000572652126866570386_"  style="overflow:visible;"/>
							</clipPath>
							
								<use xlink:href="#SVGID_00000092451408913360918210000000572652126866570386_"  style="overflow:visible;fill:none;stroke:#20736F;stroke-width:0.75;stroke-miterlimit:10;"/>
						</g>
					</g>
				</g>
				<g>
					<g>
						<g>
							<g>
								<path class="st2" d="M255.5-32.5c1.9,6.3,7.4,11.7,13.4,12c4.7,0.3,8.9-2.4,12.5-5.5c4.4-3.8,8.3-8.3,11.5-13.4
									c3.2-5.1,5.7-10.6,9-15.6c3.3-5,7.5-9.5,12.9-11.5c2.9-1,6.1-1.2,9.2-0.7c-3.4-3.1-7.1-5.7-11.1-7.7
									c-8.7-4.3-18.8-5.2-27.3-1.6c-1.7,0.7-3.4,1.7-4.4,3.3c-0.4,0.6-0.6,1.2-0.7,2c-0.2,1.2,0,2.5,0.7,3.5
									c-1.2,0.4-2.4,0.9-3.6,1.4c-2.1,0.9-4.2,2-6.2,3.1c-5.1,3-9.9,6.8-13.1,12.1C255-45.6,253.6-38.8,255.5-32.5z"/>
							</g>
						</g>
					</g>
					<g>
						<g>
							<g>
								<path class="st2" d="M196.3-2.2c2.6-0.7,5.4-2.4,6.3-5.3c0.6-1.9,0.4-4.3-1.7-4.7c-1.7-0.3-4,1-5.7,1.2
									c-2.6,0.3-5.4-0.3-7.8-1.1c-4.1-1.4-7.9-4-10.8-7.3c-0.2,2.4,0,4.9,0.8,7.1C180.1-4.6,188.7,0,196.3-2.2z"/>
							</g>
						</g>
						<g>
							<g>
								<g>
									<g>
										<path class="st2" d="M100.5-67.8c0.1-2.4-0.4-4.9-1.6-7.1c-3.9-7.2-13.2-9-21.8-4.3l-17.4,9.5l28.7,52.4l22.9-12.5
											l2.2-1.2c9.6-5.2,13.1-17.3,7.9-26.9C117.1-65.4,108.6-69.1,100.5-67.8z"/>
									</g>
								</g>
							</g>
						</g>
						<g>
							<g>
								<polygon class="st2" points="114.4,-78.3 122.2,-76.1 114.3,-49.3 106.7,-51.7 								"/>
							</g>
						</g>
						<g>
							<g>
								<g>
									<g>
										<defs>
											<path id="SVGID_00000081641181374119670480000013301825226882316174_" d="M155.3-27.7l-0.1,0.3
												C155.7-27,155.6-27.2,155.3-27.7z"/>
										</defs>
										<clipPath id="SVGID_00000115510599260305625990000007760558622409940361_">
											<use xlink:href="#SVGID_00000081641181374119670480000013301825226882316174_"  style="overflow:visible;"/>
										</clipPath>
										
											<use xlink:href="#SVGID_00000081641181374119670480000013301825226882316174_"  style="overflow:visible;fill:none;stroke:#20736F;stroke-miterlimit:10;"/>
									</g>
								</g>
								<g>
									<g>
										<path class="st4" d="M155.3-27.7l-0.1,0.3C155.7-27,155.6-27.2,155.3-27.7z"/>
										<path class="st2" d="M207.7-45.9c1.8-1.3,3.3-3,4.3-5.1c3.1-6.9-0.7-14.5-8.9-18.2l-16.6-7.4l-22.2,49.8l21.7,9.7l2.1,0.9
											c9.1,4.1,19.8-0.1,23.9-9.1C215.1-32.5,213.2-40.8,207.7-45.9z"/>
									</g>
									<g>
										<defs>
											<path id="SVGID_00000090289740487961317760000014086783404219673278_" d="M155.3-27.7l-0.1,0.3
												C155.7-27,155.6-27.2,155.3-27.7z"/>
										</defs>
										<clipPath id="SVGID_00000036954914705189245130000006905162290898406840_">
											<use xlink:href="#SVGID_00000090289740487961317760000014086783404219673278_"  style="overflow:visible;"/>
										</clipPath>
										
											<use xlink:href="#SVGID_00000090289740487961317760000014086783404219673278_"  style="overflow:visible;fill:none;stroke:#20736F;stroke-miterlimit:10;"/>
									</g>
								</g>
								<g>
									<g>
										<defs>
											<path id="SVGID_00000069382810945771423700000005587291359209018276_" d="M155.3-27.7l-0.1,0.3
												C155.7-27,155.6-27.2,155.3-27.7z"/>
										</defs>
										<clipPath id="SVGID_00000022533416152107308160000014616858615028870584_">
											<use xlink:href="#SVGID_00000069382810945771423700000005587291359209018276_"  style="overflow:visible;"/>
										</clipPath>
										
											<use xlink:href="#SVGID_00000069382810945771423700000005587291359209018276_"  style="overflow:visible;fill:none;stroke:#20736F;stroke-miterlimit:10;"/>
									</g>
								</g>
							</g>
						</g>
						<g>
							<g>
								<g>
									<path class="st2" d="M172-66.3c-1.3,1.3-1.9,3.2-1.7,5c0.2,1.8,1.3,3.5,2.9,4.4c2.5,1.4,5.8,0.6,7.7-1.5
										c1.2-1.4,1.8-3.3,1.4-5.2C181.4-68.2,175.1-69.4,172-66.3z"/>
								</g>
							</g>
						</g>
						<g>
							<g>
								<path class="st2" d="M176.5-38c-4.4-1.6-9.6-0.8-13.2,2.1c-2.2,1.7-3.9,4.2-6.6,4.9c-2.1,0.6-4.3-0.1-6.4-0.6
									c-5.8-1.2-12.1-0.5-17.5,2c-1.5,0.7-3,1.7-3.4,3.3c-0.4,1.5,0.6,3.1,1.9,4c1.3,0.9,2.9,1.1,4.5,1.1c0.5,0,0.9,0,1.4,0
									c1.6,0.1,4,0.8,4.8,3.6c0,0,0,0,0,0c0.2,0.9,0.6,1.8,1.1,2.5c1,1.3,2.3,2.3,3.8,3c2,1,4.3,1.7,6.6,1.5
									c2.3-0.2,4.5-1.3,5.8-3.2c1.6-2.5,1.5-5.7,2.6-8.4c1-2.3,3-4.2,5.4-5c1.7-0.6,3.6-0.6,5.4-0.7c1.8-0.1,3.7-0.3,5.3-1.2
									c1.6-0.9,2.9-2.5,2.8-4.4C180.7-35.6,178.6-37.2,176.5-38z"/>
							</g>
						</g>
						<g>
							<g>
								<g>
									<polygon class="st2" points="205.6,-70.1 238.8,-107.9 269.8,-49.5 									"/>
								</g>
							</g>
						</g>
					</g>
				</g>
			</g>
			<g>
				<g>
					<g>
						<g>
							<g>
								<g>
									<g>
										<defs>
											<path id="SVGID_00000020356965189692471810000009269365555572571554_" d="M155.3-311.1l-0.1,0.3
												C155.7-310.4,155.6-310.6,155.3-311.1z"/>
										</defs>
										<clipPath id="SVGID_00000050663815469185878920000006043727253493791676_">
											<use xlink:href="#SVGID_00000020356965189692471810000009269365555572571554_"  style="overflow:visible;"/>
										</clipPath>
										
											<use xlink:href="#SVGID_00000020356965189692471810000009269365555572571554_"  style="overflow:visible;fill:none;stroke:#20736F;stroke-miterlimit:10;"/>
									</g>
								</g>
								<g>
									<g>
										<defs>
											<path id="SVGID_00000060727042932819431460000007625491416104720549_" d="M155.3-311.1l-0.1,0.3
												C155.7-310.4,155.6-310.6,155.3-311.1z"/>
										</defs>
										<clipPath id="SVGID_00000122716714942315929130000015337241756207975300_">
											<use xlink:href="#SVGID_00000060727042932819431460000007625491416104720549_"  style="overflow:visible;"/>
										</clipPath>
										
											<use xlink:href="#SVGID_00000060727042932819431460000007625491416104720549_"  style="overflow:visible;fill:none;stroke:#20736F;stroke-miterlimit:10;"/>
									</g>
								</g>
								<g>
									<g>
										<defs>
											<path id="SVGID_00000136399826478903978430000014029615307063822512_" d="M155.3-311.1l-0.1,0.3
												C155.7-310.4,155.6-310.6,155.3-311.1z"/>
										</defs>
										<clipPath id="SVGID_00000020397083772226292070000010844700109710379195_">
											<use xlink:href="#SVGID_00000136399826478903978430000014029615307063822512_"  style="overflow:visible;"/>
										</clipPath>
										
											<use xlink:href="#SVGID_00000136399826478903978430000014029615307063822512_"  style="overflow:visible;fill:none;stroke:#20736F;stroke-miterlimit:10;"/>
									</g>
								</g>
							</g>
						</g>
						<g>
							<g>
								<g>
									<defs>
										<path id="SVGID_00000176027762902021321060000009934158396611824818_" d="M164.7-343.8c0.5-0.6,1-1.2,1.4-1.8
											c3.6-5.4,4.3-12.6,1.6-18.4c-1.5-3.3-4.1-6.2-7.6-7.5c-2.3-0.8-4.7-0.9-7.1-0.5c-1-1.3-2.4-2.5-4.1-3.4
											c-3.8-1.9-8.4-1.6-12.2,0c-7.1,3-11.9,10.7-11.3,18.4c0.2,3.3,1.8,7,4.9,8c-0.2,0.8-0.3,1.7-0.3,2.5
											c-0.8,0.6-1.5,1.3-1.8,2.4c-0.6,1.9-0.2,3.9,0.3,5.7c2.8,8.8,11.4,15.5,20.6,16c2.8,0.2,5.7-0.2,8.4-0.9
											c3-0.8,5.9-2.1,7.9-4.4c3.8-4.4,3.1-11.5-0.6-16C164.8-343.6,164.8-343.7,164.7-343.8z"/>
									</defs>
									<use xlink:href="#SVGID_00000176027762902021321060000009934158396611824818_"  style="overflow:visible;fill:#005F5A;"/>
									<clipPath id="SVGID_00000021827255602188842620000013622458519610357151_">
										<use xlink:href="#SVGID_00000176027762902021321060000009934158396611824818_"  style="overflow:visible;"/>
									</clipPath>
									
										<use xlink:href="#SVGID_00000176027762902021321060000009934158396611824818_"  style="overflow:visible;fill:none;stroke:#20736F;stroke-width:0.75;stroke-miterlimit:10;"/>
								</g>
							</g>
						</g>
					</g>
					<g>
						<g>
							<defs>
								<path id="SVGID_00000167374064241301976820000012461443141651852443_" d="M252.2-324.8c-1.6-0.8-3.7-1.4-5.8-1.5
									c-1.5-4.7-5.5-9-9.6-10c-2.8-0.7-5.8-0.1-8.4,1.2c-2.6,1.3-4.8,3.2-6.8,5.3c-3,3.1-5.6,7.4-4.3,11.5
									c0.4,1.3,1.1,2.3,2.1,3.2c-0.2,0.2-0.4,0.5-0.5,0.7c-1.8,2.8-2.6,6.4-1.2,9.4c1.1,2.3,3.3,3.8,5.7,4.5c2.4,0.7,5,0.5,7.4,0
									c1.9-0.4,3.7-1.1,5.4-1.9c1.8,0.7,3.8,0.9,5.8,0.8c3.9-0.2,7.8-1.4,10.9-3.7c3-2.2,5.1-5.5,5.5-8.9
									C258.8-318.4,256.4-322.7,252.2-324.8z"/>
							</defs>
							<use xlink:href="#SVGID_00000167374064241301976820000012461443141651852443_"  style="overflow:visible;fill:#005F5A;"/>
							<clipPath id="SVGID_00000170238608644535159050000007683847599227217793_">
								<use xlink:href="#SVGID_00000167374064241301976820000012461443141651852443_"  style="overflow:visible;"/>
							</clipPath>
							
								<use xlink:href="#SVGID_00000167374064241301976820000012461443141651852443_"  style="overflow:visible;fill:none;stroke:#20736F;stroke-width:0.75;stroke-miterlimit:10;"/>
						</g>
					</g>
				</g>
				<g>
					<g>
						<g>
							<g>
								<path class="st2" d="M255.5-315.9c1.9,6.3,7.4,11.7,13.4,12c4.7,0.3,8.9-2.4,12.5-5.5c4.4-3.8,8.3-8.3,11.5-13.4
									c3.2-5.1,5.7-10.6,9-15.6c3.3-5,7.5-9.5,12.9-11.5c2.9-1,6.1-1.2,9.2-0.7c-3.4-3.1-7.1-5.7-11.1-7.7
									c-8.7-4.3-18.8-5.2-27.3-1.6c-1.7,0.7-3.4,1.7-4.4,3.3c-0.4,0.6-0.6,1.2-0.7,2c-0.2,1.2,0,2.5,0.7,3.5
									c-1.2,0.4-2.4,0.9-3.6,1.4c-2.1,0.9-4.2,2-6.2,3.1c-5.1,3-9.9,6.8-13.1,12.1C255-329.1,253.6-322.2,255.5-315.9z"/>
							</g>
						</g>
					</g>
					<g>
						<g>
							<g>
								<path class="st2" d="M194.9-284.9c2.6-0.7,5.4-2.4,6.3-5.3c0.6-1.9,0.4-4.3-1.7-4.7c-1.7-0.3-4,1-5.7,1.2
									c-2.6,0.3-5.4-0.3-7.8-1.1c-4.1-1.4-7.9-4-10.8-7.3c-0.2,2.4,0,4.9,0.8,7.1C178.7-287.3,187.2-282.8,194.9-284.9z"/>
							</g>
						</g>
						<g>
							<g>
								<g>
									<g>
										<path class="st2" d="M100.5-351.2c0.1-2.4-0.4-4.9-1.6-7.1c-3.9-7.2-13.2-9-21.8-4.3l-17.4,9.5l28.7,52.4l22.9-12.5
											l2.2-1.2c9.6-5.2,13.1-17.3,7.9-26.9C117.1-348.8,108.6-352.6,100.5-351.2z"/>
									</g>
								</g>
							</g>
						</g>
						<g>
							<g>
								<polygon class="st2" points="114.4,-361.8 122.2,-359.6 114.3,-332.7 106.7,-335.2 								"/>
							</g>
						</g>
						<g>
							<g>
								<g>
									<g>
										<defs>
											<path id="SVGID_00000095321582711761186280000010186278935544012461_" d="M155.3-311.1l-0.1,0.3
												C155.7-310.4,155.6-310.6,155.3-311.1z"/>
										</defs>
										<clipPath id="SVGID_00000183229731232451263150000012137272413420107687_">
											<use xlink:href="#SVGID_00000095321582711761186280000010186278935544012461_"  style="overflow:visible;"/>
										</clipPath>
										
											<use xlink:href="#SVGID_00000095321582711761186280000010186278935544012461_"  style="overflow:visible;fill:none;stroke:#20736F;stroke-miterlimit:10;"/>
									</g>
								</g>
								<g>
									<g>
										<path class="st4" d="M155.3-311.1l-0.1,0.3C155.7-310.4,155.6-310.6,155.3-311.1z"/>
										<path class="st2" d="M207.7-329.3c1.8-1.3,3.3-3,4.3-5.1c3.1-6.9-0.7-14.5-8.9-18.2l-16.6-7.4l-22.2,49.8l21.7,9.7
											l2.1,0.9c9.1,4.1,19.8-0.1,23.9-9.1C215.1-316,213.2-324.2,207.7-329.3z"/>
									</g>
									<g>
										<defs>
											<path id="SVGID_00000002358182720403107920000006825482211084939404_" d="M155.3-311.1l-0.1,0.3
												C155.7-310.4,155.6-310.6,155.3-311.1z"/>
										</defs>
										<clipPath id="SVGID_00000145015948052696958860000001339517741239462069_">
											<use xlink:href="#SVGID_00000002358182720403107920000006825482211084939404_"  style="overflow:visible;"/>
										</clipPath>
										
											<use xlink:href="#SVGID_00000002358182720403107920000006825482211084939404_"  style="overflow:visible;fill:none;stroke:#20736F;stroke-miterlimit:10;"/>
									</g>
								</g>
								<g>
									<g>
										<defs>
											<path id="SVGID_00000075126235322004787310000013700426094878880929_" d="M155.3-311.1l-0.1,0.3
												C155.7-310.4,155.6-310.6,155.3-311.1z"/>
										</defs>
										<clipPath id="SVGID_00000075122125070278674000000007270185585686237097_">
											<use xlink:href="#SVGID_00000075126235322004787310000013700426094878880929_"  style="overflow:visible;"/>
										</clipPath>
										
											<use xlink:href="#SVGID_00000075126235322004787310000013700426094878880929_"  style="overflow:visible;fill:none;stroke:#20736F;stroke-miterlimit:10;"/>
									</g>
								</g>
							</g>
						</g>
						<g>
							<g>
								<g>
									<path class="st2" d="M172-349.7c-1.3,1.3-1.9,3.2-1.7,5c0.2,1.8,1.3,3.5,2.9,4.4c2.5,1.4,5.8,0.6,7.7-1.5
										c1.2-1.4,1.8-3.3,1.4-5.2C181.4-351.6,175.1-352.9,172-349.7z"/>
								</g>
							</g>
						</g>
						<g>
							<g>
								<path class="st2" d="M176.5-322.2c-4.4-1.6-9.6-0.8-13.2,2.1c-2.2,1.7-3.9,4.2-6.6,4.9c-2.1,0.6-4.3-0.1-6.4-0.6
									c-5.8-1.2-12.1-0.5-17.5,2c-1.5,0.7-3,1.7-3.4,3.3c-0.4,1.5,0.6,3.1,1.9,4c1.3,0.9,2.9,1.1,4.5,1.1c0.5,0,0.9,0,1.4,0
									c1.6,0.1,4,0.8,4.8,3.6c0,0,0,0,0,0c0.2,0.9,0.6,1.8,1.1,2.5c1,1.3,2.3,2.3,3.8,3c2,1,4.3,1.7,6.6,1.5
									c2.3-0.2,4.5-1.3,5.8-3.2c1.6-2.5,1.5-5.7,2.6-8.4c1-2.3,3-4.2,5.4-5c1.7-0.6,3.6-0.6,5.4-0.7c1.8-0.1,3.7-0.3,5.3-1.2
									c1.6-0.9,2.9-2.5,2.8-4.4C180.7-319.8,178.6-321.4,176.5-322.2z"/>
							</g>
						</g>
						<g>
							<g>
								<g>
									<polygon class="st2" points="205.6,-353.6 238.8,-391.3 269.8,-333 									"/>
								</g>
							</g>
						</g>
					</g>
				</g>
			</g>
		</g>
		<circle class="st2" cx="303.4" cy="-247.9" r="9.6"/>
		
			<ellipse transform="matrix(0.7071 -0.7071 0.7071 0.7071 155.5423 202.2331)" class="st2" cx="321.9" cy="-86.6" rx="9.6" ry="9.6"/>
		<circle class="st2" cx="121.2" cy="-99.8" r="9.6"/>
		<g>
			<g>
				<path class="st2" d="M116.1-184.6c-3.6-1.3-7.8-0.7-10.8,1.7c-1.8,1.4-3.2,3.5-5.4,4.1c-1.7,0.5-3.5-0.1-5.3-0.5
					c-4.8-1-9.9-0.4-14.3,1.7c-1.2,0.6-2.5,1.4-2.8,2.7c-0.3,1.2,0.5,2.6,1.5,3.3c1.1,0.7,2.4,0.9,3.7,0.9c0.4,0,0.7,0,1.1,0
					c1.3,0.1,3.3,0.7,4,3c0,0,0,0,0,0c0.1,0.7,0.5,1.5,0.9,2.1c0.8,1.1,1.9,1.9,3.1,2.5c1.7,0.8,3.6,1.4,5.4,1.2
					c1.9-0.2,3.7-1.1,4.8-2.6c1.4-2,1.2-4.7,2.1-6.9c0.8-1.9,2.5-3.4,4.4-4.1c1.4-0.5,2.9-0.5,4.4-0.6c1.5-0.1,3-0.3,4.3-1
					c1.3-0.7,2.4-2.1,2.3-3.6C119.5-182.6,117.8-183.9,116.1-184.6z"/>
			</g>
		</g>
	</g>
</pattern>
<pattern  id="SVGID_00000137109813180132829200000001035302705712774833_" xlink:href="#Nueva_muestra_de_motivo_12" patternTransform="matrix(1.7638 0 0 1.7638 5820.9468 6011.1128)">
</pattern>
<rect x="-0.3" y="0" style="fill:url(#SVGID_00000137109813180132829200000001035302705712774833_);" width="500" height="500"/>
</svg>
