<?xml version="1.0" encoding="UTF-8"?><svg xmlns="http://www.w3.org/2000/svg" viewBox="0 0 139.28 115.3"><defs><style>.d{fill:#0598d1;}</style></defs><g id="a"/><g id="b"><g id="c"><g><path class="d" d="M130.8,82.95c2.23-2.86,8.47-2.86,8.47-2.86-3.25-3.49-6.66-4.47-7.23-4.62-.71,.18-1.65,.35-2.85,.49-2.99,.35-7.12,.53-11.92,.3-.18,.64-.42,1.3-.74,2-4.73,10.21-11.5,18.15-24.62,16.54-12.06-1.47-21.76-16.68-16.31-31.53-6.42-3.28-31.83-16.86-45.32-32.6,0,0-.29-.37-.56-.88C6.32,52.72,10.04,74.94,10.04,74.94c-7.9,.54-10.04,5.15-10.04,5.15,6.22-.06,8.09,3.14,8.09,3.14-5.29,2.61-4.75,12.11-4.75,12.11,5.29-4.95,9.43-2.47,9.43-2.47-2.81,7.69,.4,12.17,.4,12.17,5.08-12.04,12.64-1.85,12.64-1.85,15.7,11.24,35.68,12.84,53.96,11.86,18.28-.98,32.56-11.15,32.56-11.15,0,0-.17-.02,4.28-3.83,5.74-4.92,8.83,4.9,8.83,4.9,3.84-5.71,.45-12.66,.45-12.66,6.24-1.07,9.72,3.3,9.72,3.3-.18-8.47-4.81-12.66-4.81-12.66Zm-85.95,9.89c-11.93,0-21.6-7.88-21.6-17.59s9.68-17.59,21.6-17.59,21.61,7.88,21.61,17.59c0,2.99-.91,5.79-2.53,8.26,.8-1.86,1.24-3.9,1.24-6.04,0-8.69-7.26-15.74-16.22-15.74s-16.22,7.05-16.22,15.74c0,7.52,5.44,13.81,12.71,15.36-.2,0-.4,.01-.59,.01Zm6.25-4.98c-5.49,0-9.95-4.29-9.95-9.59s4.46-9.59,9.95-9.59c1.32,0,2.58,.26,3.73,.7l-.91,3.82-1.35,5.62,4.02-3.7,2.61-2.4c1.16,1.57,1.84,3.48,1.84,5.55,0,5.29-4.45,9.59-9.95,9.59Zm25.76,8.56c-.81,.69-5.29,5.46-6.04,6.26v.12s-.02-.02-.05-.06c-.04,.04-.06,.06-.06,.06v-.12c-.75-.81-5.22-5.57-6.04-6.26-.89-.76-2.82-2.94,1.05-6.15,3.58-2.98,4.5-3.89,5-4.14v-.05s.04,.02,.06,.02c.02,0,.03-.01,.05-.02v.05c.5,.26,1.42,1.16,5,4.14,3.86,3.21,1.94,5.39,1.04,6.15Z"/><path class="d" d="M38.75,33.45c5.79,5.79,24.32,20.9,38.79,25.69,.6-.86,2.97-3.38,9.44-1.59,.13,.04,.26,.07,.38,.11,8.03,2.37,22.3,6.84,22.3,6.84,0,0,7.24,2.23,7.94,8.2l12.84-.9s.5,.17,1.13,.44c-5.76-42.69-36.79-50.6-42.79-52.35-8.83-2.5,0-12.13,0-12.13-7.94,0-13.02,7.4-13.02,7.4-3.74-.89-1.25-15.16-1.25-15.16-9.36,1.34-10.62,15.25-10.62,15.25h-.54c-5.9-8.39-10.78-8.39-10.78-8.39,5.98,10.97-5.84,13.65-5.84,13.65-5.88,1-11.08,4.4-14.06,6.73,1.1,.86,2.65,2.78,6.08,6.21Z"/></g></g></g></svg>